Testboreto.ufo
<glyph name="exclam" format="2">
  <advance width="330"/>
  <unicode hex="0021"/>
  <outline>
    <contour>
      <point x="155" y="173" type="line"/>
      <point x="175" y="173" type="line"/>
      <point x="207" y="700" type="line"/>
      <point x="123" y="700" type="line"/>
    </contour>
    <contour>
      <point x="113" y="42" type="curve" smooth="yes"/>
      <point x="113" y="12"/>
      <point x="135" y="-10"/>
      <point x="165" y="-10" type="curve" smooth="yes"/>
      <point x="195" y="-10"/>
      <point x="217" y="12"/>
      <point x="217" y="42" type="curve" smooth="yes"/>
      <point x="217" y="72"/>
      <point x="195" y="94"/>
      <point x="165" y="94" type="curve" smooth="yes"/>
      <point x="135" y="94"/>
      <point x="113" y="72"/>
    </contour>
  </outline>
</glyph>
<glyph name="numbersign" format="2">
  <advance width="598"/>
  <unicode hex="0023"/>
  <outline>
    <contour>
      <point x="111" y="0" type="line"/>
      <point x="136" y="0" type="line"/>
      <point x="260" y="700" type="line"/>
      <point x="235" y="700" type="line"/>
    </contour>
    <contour>
      <point x="35" y="203" type="line"/>
      <point x="518" y="203" type="line"/>
      <point x="518" y="259" type="line"/>
      <point x="35" y="259" type="line"/>
    </contour>
    <contour>
      <point x="80" y="455" type="line"/>
      <point x="563" y="455" type="line"/>
      <point x="563" y="511" type="line" name="hr01"/>
      <point x="80" y="511" type="line"/>
    </contour>
    <contour>
      <point x="335" y="0" type="line"/>
      <point x="360" y="0" type="line"/>
      <point x="484" y="700" type="line" name="hr02"/>
      <point x="459" y="700" type="line"/>
    </contour>
  </outline>
</glyph>
<glyph name="dollar" format="2">
  <advance width="513"/>
  <unicode hex="0024"/>
  <outline>
    <contour>
      <point x="54" y="22" type="line"/>
      <point x="118" y="1"/>
      <point x="199" y="-14"/>
      <point x="253" y="-14" type="curve" smooth="yes"/>
      <point x="377" y="-14"/>
      <point x="461" y="63"/>
      <point x="461" y="175" type="curve" smooth="yes"/>
      <point x="461" y="296"/>
      <point x="364" y="351"/>
      <point x="266" y="406" type="curve" smooth="yes"/>
      <point x="195" y="446"/>
      <point x="120" y="488"/>
      <point x="120" y="570" type="curve" smooth="yes"/>
      <point x="120" y="643"/>
      <point x="178" y="690"/>
      <point x="264" y="690" type="curve" smooth="yes"/>
      <point x="321" y="690"/>
      <point x="372" y="670"/>
      <point x="410" y="629" type="curve"/>
      <point x="416" y="629" type="line"/>
      <point x="421" y="684" type="line"/>
      <point x="387" y="701"/>
      <point x="317" y="714"/>
      <point x="264" y="714" type="curve" smooth="yes"/>
      <point x="144" y="714"/>
      <point x="64" y="646"/>
      <point x="64" y="545" type="curve" smooth="yes"/>
      <point x="64" y="441"/>
      <point x="151" y="391"/>
      <point x="245" y="336" type="curve" smooth="yes"/>
      <point x="362" y="268"/>
      <point x="403" y="217"/>
      <point x="403" y="148" type="curve" smooth="yes"/>
      <point x="403" y="64"/>
      <point x="343" y="10"/>
      <point x="253" y="10" type="curve" smooth="yes"/>
      <point x="189" y="10"/>
      <point x="116" y="37"/>
      <point x="66" y="82" type="curve"/>
      <point x="60" y="82" type="line"/>
    </contour>
    <contour>
      <point x="243" y="-98" type="line"/>
      <point x="269" y="-98" type="line"/>
      <point x="269" y="354" type="line"/>
      <point x="243" y="354" type="line"/>
    </contour>
    <contour>
      <point x="246" y="378" type="line"/>
      <point x="272" y="378" type="line"/>
      <point x="272" y="790" type="line"/>
      <point x="246" y="790" type="line"/>
    </contour>
  </outline>
</glyph>
<glyph name="percent" format="2">
  <advance width="770"/>
  <unicode hex="0025"/>
  <outline>
    <contour>
      <point x="173" y="0" type="line"/>
      <point x="205" y="0" type="line"/>
      <point x="597" y="700" type="line"/>
      <point x="565" y="700" type="line"/>
    </contour>
    <contour>
      <point x="44" y="527" type="curve" smooth="yes"/>
      <point x="44" y="418"/>
      <point x="103" y="345"/>
      <point x="190" y="345" type="curve" smooth="yes"/>
      <point x="277" y="345"/>
      <point x="336" y="418"/>
      <point x="336" y="527" type="curve" smooth="yes"/>
      <point x="336" y="636"/>
      <point x="277" y="709" name="hr01"/>
      <point x="190" y="709" type="curve" smooth="yes"/>
      <point x="103" y="709"/>
      <point x="44" y="636"/>
    </contour>
    <contour>
      <point x="102" y="527" type="curve" smooth="yes"/>
      <point x="102" y="630.45"/>
      <point x="134.534" y="689"/>
      <point x="190" y="689" type="curve" smooth="yes"/>
      <point x="245" y="689"/>
      <point x="278" y="630.185"/>
      <point x="278" y="527" type="curve" smooth="yes"/>
      <point x="278" y="423.815"/>
      <point x="245" y="365"/>
      <point x="190" y="365" type="curve" smooth="yes"/>
      <point x="135" y="365"/>
      <point x="102" y="423.815"/>
    </contour>
    <contour>
      <point x="434" y="172" type="curve" smooth="yes"/>
      <point x="434" y="63"/>
      <point x="493" y="-10"/>
      <point x="580" y="-10" type="curve" smooth="yes"/>
      <point x="667" y="-10"/>
      <point x="726" y="63"/>
      <point x="726" y="172" type="curve" smooth="yes"/>
      <point x="726" y="281"/>
      <point x="667" y="354"/>
      <point x="580" y="354" type="curve" smooth="yes"/>
      <point x="493" y="354" name="hr02"/>
      <point x="434" y="281"/>
    </contour>
    <contour>
      <point x="492" y="172" type="curve" smooth="yes"/>
      <point x="492" y="275.185"/>
      <point x="525" y="334"/>
      <point x="580" y="334" type="curve" smooth="yes"/>
      <point x="635" y="334"/>
      <point x="668" y="275.185"/>
      <point x="668" y="172" type="curve" smooth="yes"/>
      <point x="668" y="68.815"/>
      <point x="635" y="10"/>
      <point x="580" y="10" type="curve" smooth="yes"/>
      <point x="525" y="10"/>
      <point x="492" y="68.815"/>
    </contour>
  </outline>
</glyph>
<glyph name="quotesingle" format="2">
  <advance width="228"/>
  <unicode hex="0027"/>
  <outline>
    <contour>
      <point x="151" y="640" type="line" smooth="yes"/>
      <point x="152" y="647"/>
      <point x="153" y="655"/>
      <point x="153" y="663" type="curve" smooth="yes"/>
      <point x="153" y="686"/>
      <point x="145" y="710"/>
      <point x="114" y="710" type="curve" smooth="yes"/>
      <point x="83" y="710"/>
      <point x="75" y="686"/>
      <point x="75" y="663" type="curve" smooth="yes"/>
      <point x="75" y="655"/>
      <point x="75.838" y="646.975"/>
      <point x="77" y="640" type="curve" smooth="yes"/>
      <point x="105" y="472" type="line"/>
      <point x="123" y="472" type="line"/>
    </contour>
  </outline>
</glyph>
<glyph name="parenleft" format="2">
  <advance width="341"/>
  <unicode hex="0028"/>
  <outline>
    <contour>
      <point x="90" y="350" type="curve" smooth="yes"/>
      <point x="90" y="189"/>
      <point x="162" y="26"/>
      <point x="281" y="-82" type="curve"/>
      <point x="295" y="-71" type="line"/>
      <point x="210" y="36"/>
      <point x="158" y="195"/>
      <point x="158" y="350" type="curve" smooth="yes"/>
      <point x="158" y="505"/>
      <point x="210" y="664"/>
      <point x="295" y="771" type="curve"/>
      <point x="281" y="782" type="line"/>
      <point x="162" y="674"/>
      <point x="90" y="511"/>
    </contour>
  </outline>
</glyph>
<glyph name="asterisk" format="2">
  <advance width="456"/>
  <unicode hex="002A"/>
  <outline>
    <contour>
      <point x="222" y="550" type="line"/>
      <point x="202" y="360" type="line"/>
      <point x="254" y="360" type="line"/>
      <point x="234" y="550" type="line"/>
    </contour>
    <contour>
      <point x="225" y="555" type="line"/>
      <point x="50" y="477" type="line"/>
      <point x="76" y="432" type="line"/>
      <point x="231" y="545" type="line"/>
    </contour>
    <contour>
      <point x="231" y="555" type="line"/>
      <point x="76" y="668" type="line"/>
      <point x="50" y="623" type="line"/>
      <point x="225" y="545" type="line"/>
    </contour>
    <contour>
      <point x="234" y="550" type="line"/>
      <point x="254" y="740" type="line"/>
      <point x="202" y="740" type="line"/>
      <point x="222" y="550" type="line"/>
    </contour>
    <contour>
      <point x="231" y="545" type="line"/>
      <point x="406" y="623" type="line"/>
      <point x="380" y="668" type="line"/>
      <point x="225" y="555" type="line"/>
    </contour>
    <contour>
      <point x="225" y="545" type="line"/>
      <point x="380" y="432" type="line"/>
      <point x="406" y="477" type="line"/>
      <point x="231" y="555" type="line"/>
    </contour>
  </outline>
</glyph>
<glyph name="plus" format="2">
  <advance width="582"/>
  <unicode hex="002B"/>
  <outline>
    <contour>
      <point x="59" y="313" type="line"/>
      <point x="523" y="313" type="line"/>
      <point x="523" y="343" type="line"/>
      <point x="59" y="343" type="line"/>
    </contour>
    <contour>
      <point x="307" y="92" type="line"/>
      <point x="307" y="556" type="line"/>
      <point x="275" y="556" type="line"/>
      <point x="275" y="92" type="line"/>
    </contour>
  </outline>
</glyph>
<glyph name="comma" format="2">
  <advance width="264"/>
  <unicode hex="002C"/>
  <outline>
    <contour>
      <point x="75" y="42" type="curve" smooth="yes"/>
      <point x="75" y="73"/>
      <point x="97" y="94"/>
      <point x="129" y="94" type="curve" smooth="yes"/>
      <point x="166" y="94"/>
      <point x="186" y="65"/>
      <point x="186" y="15" type="curve" smooth="yes"/>
      <point x="186" y="-50"/>
      <point x="152" y="-109"/>
      <point x="93" y="-149" type="curve"/>
      <point x="83" y="-134" type="line"/>
      <point x="128" y="-100"/>
      <point x="153" y="-51" name="hr01"/>
      <point x="156" y="12" type="curve"/>
      <point x="147" y="-2"/>
      <point x="135" y="-7"/>
      <point x="121" y="-7" type="curve" smooth="yes"/>
      <point x="93" y="-7"/>
      <point x="75" y="14"/>
    </contour>
  </outline>
</glyph>
<glyph name="hyphen" format="2">
  <advance width="330"/>
  <unicode hex="002D"/>
  <unicode hex="2010"/>
  <outline>
    <contour>
      <point x="40" y="335" type="line"/>
      <point x="290" y="335" type="line"/>
      <point x="290" y="379" type="line"/>
      <point x="40" y="379" type="line"/>
    </contour>
  </outline>
</glyph>
<glyph name="period" format="2">
  <advance width="264"/>
  <unicode hex="002E"/>
  <outline>
    <contour>
      <point x="80" y="42" type="curve" smooth="yes"/>
      <point x="80" y="12"/>
      <point x="102" y="-10"/>
      <point x="132" y="-10" type="curve" smooth="yes"/>
      <point x="162" y="-10"/>
      <point x="184" y="12"/>
      <point x="184" y="42" type="curve" smooth="yes"/>
      <point x="184" y="72"/>
      <point x="162" y="94"/>
      <point x="132" y="94" type="curve" smooth="yes"/>
      <point x="102" y="94"/>
      <point x="80" y="72"/>
    </contour>
  </outline>
</glyph>
<glyph name="slash" format="2">
  <advance width="362"/>
  <unicode hex="002F"/>
  <outline>
    <contour>
      <point x="50" y="0" type="line"/>
      <point x="84" y="0" type="line"/>
      <point x="312" y="700" type="line"/>
      <point x="278" y="700" type="line"/>
    </contour>
  </outline>
</glyph>
<glyph name="zero" format="2">
  <advance width="642"/>
  <unicode hex="0030"/>
  <outline>
    <contour>
      <point x="80" y="350" type="curve" smooth="yes"/>
      <point x="80" y="131"/>
      <point x="176" y="-14"/>
      <point x="321" y="-14" type="curve" smooth="yes"/>
      <point x="466" y="-14"/>
      <point x="562" y="131"/>
      <point x="562" y="350" type="curve" smooth="yes"/>
      <point x="562" y="569"/>
      <point x="466" y="714"/>
      <point x="321" y="714" type="curve" smooth="yes"/>
      <point x="176" y="714"/>
      <point x="80" y="569"/>
    </contour>
    <contour>
      <point x="154" y="350" type="curve" smooth="yes"/>
      <point x="154" y="566.871"/>
      <point x="215.194" y="690"/>
      <point x="321" y="690" type="curve" smooth="yes"/>
      <point x="426.822" y="690"/>
      <point x="488" y="566.67"/>
      <point x="488" y="350" type="curve" smooth="yes"/>
      <point x="488" y="133"/>
      <point x="427" y="10"/>
      <point x="321" y="10" type="curve" smooth="yes"/>
      <point x="215" y="10"/>
      <point x="154" y="133"/>
    </contour>
  </outline>
</glyph>
<glyph name="one" format="2">
  <advance width="389"/>
  <unicode hex="0031"/>
  <outline>
    <contour>
      <point x="191" y="0" type="line"/>
      <point x="259" y="0" type="line"/>
      <point x="259" y="714" type="line"/>
      <point x="239" y="714" type="line"/>
      <point x="38" y="590" type="line"/>
      <point x="46" y="574" type="line"/>
      <point x="191" y="642" type="line"/>
    </contour>
  </outline>
</glyph>
<glyph name="two" format="2">
  <advance width="536"/>
  <unicode hex="0032"/>
  <outline>
    <contour>
      <point x="46" y="0" type="line"/>
      <point x="476" y="0" type="line"/>
      <point x="476" y="60" type="line"/>
      <point x="110" y="60" type="line"/>
      <point x="332" y="315" type="line" smooth="yes"/>
      <point x="424.161" y="420.86"/>
      <point x="457" y="489"/>
      <point x="457" y="551" type="curve" smooth="yes"/>
      <point x="457" y="650"/>
      <point x="374" y="714"/>
      <point x="252" y="714" type="curve" smooth="yes"/>
      <point x="190" y="714"/>
      <point x="126" y="697"/>
      <point x="80" y="671" type="curve"/>
      <point x="85" y="617" type="line"/>
      <point x="91" y="617" type="line"/>
      <point x="136" y="662"/>
      <point x="197" y="690"/>
      <point x="252" y="690" type="curve" smooth="yes"/>
      <point x="330" y="690"/>
      <point x="383" y="634"/>
      <point x="383" y="545" type="curve" smooth="yes"/>
      <point x="383" y="482"/>
      <point x="355.923" y="418.06"/>
      <point x="297" y="342" type="curve" smooth="yes"/>
      <point x="46" y="18" type="line"/>
    </contour>
  </outline>
</glyph>
<glyph name="three" format="2">
  <advance width="533"/>
  <unicode hex="0033"/>
  <outline>
    <contour>
      <point x="196" y="372" type="line" smooth="yes"/>
      <point x="311" y="372"/>
      <point x="384" y="301"/>
      <point x="384" y="190" type="curve" smooth="yes"/>
      <point x="384" y="80"/>
      <point x="321" y="10"/>
      <point x="224" y="10" type="curve" smooth="yes"/>
      <point x="165" y="10"/>
      <point x="105" y="35"/>
      <point x="56" y="82" type="curve"/>
      <point x="50" y="82" type="line"/>
      <point x="56" y="22" type="line"/>
      <point x="102" y="0"/>
      <point x="166" y="-14"/>
      <point x="224" y="-14" type="curve" smooth="yes"/>
      <point x="364" y="-14"/>
      <point x="458" y="66"/>
      <point x="458" y="187" type="curve" smooth="yes"/>
      <point x="458" y="288"/>
      <point x="391" y="361"/>
      <point x="278" y="382" type="curve"/>
      <point x="278" y="388" type="line"/>
      <point x="374" y="411"/>
      <point x="426" y="469" name="hr01"/>
      <point x="426" y="549" type="curve" smooth="yes"/>
      <point x="426" y="648"/>
      <point x="346" y="714"/>
      <point x="224" y="714" type="curve" smooth="yes"/>
      <point x="167" y="714"/>
      <point x="104" y="700"/>
      <point x="61" y="680" type="curve"/>
      <point x="66" y="627" type="line"/>
      <point x="72" y="627" type="line"/>
      <point x="111" y="666"/>
      <point x="172" y="690"/>
      <point x="224" y="690" type="curve" smooth="yes"/>
      <point x="302" y="690"/>
      <point x="354" y="633"/>
      <point x="354" y="544" type="curve" smooth="yes"/>
      <point x="354" y="447"/>
      <point x="292" y="396"/>
      <point x="192" y="396" type="curve" smooth="yes"/>
      <point x="174" y="396" type="line"/>
      <point x="174" y="372" type="line"/>
    </contour>
  </outline>
</glyph>
<glyph name="four" format="2">
  <advance width="568"/>
  <unicode hex="0034"/>
  <outline>
    <contour>
      <point x="34" y="196" type="line"/>
      <point x="534" y="196" type="line"/>
      <point x="534" y="220" type="line"/>
      <point x="64" y="220" type="line"/>
      <point x="376" y="700" type="line"/>
      <point x="300" y="700" type="line"/>
      <point x="34" y="216" type="line"/>
    </contour>
    <contour>
      <point x="346" y="0" type="line"/>
      <point x="412" y="0" type="line"/>
      <point x="412" y="430" type="line"/>
      <point x="346" y="430" type="line"/>
    </contour>
  </outline>
</glyph>
<glyph name="six" format="2">
  <advance width="589"/>
  <unicode hex="0036"/>
  <outline>
    <contour>
      <point x="312" y="-14" type="curve" smooth="yes"/>
      <point x="440" y="-14"/>
      <point x="527" y="72"/>
      <point x="527" y="200" type="curve" smooth="yes"/>
      <point x="527" y="323"/>
      <point x="449" y="405"/>
      <point x="334" y="405" type="curve" smooth="yes"/>
      <point x="290" y="405"/>
      <point x="247" y="393"/>
      <point x="203" y="368" type="curve"/>
      <point x="212" y="352" type="line"/>
      <point x="243" y="368"/>
      <point x="278" y="377"/>
      <point x="309" y="377" type="curve" smooth="yes"/>
      <point x="397" y="377"/>
      <point x="453" y="305"/>
      <point x="453" y="192" type="curve" smooth="yes"/>
      <point x="453" y="82"/>
      <point x="396" y="10"/>
      <point x="312" y="10" type="curve" smooth="yes"/>
      <point x="212" y="10"/>
      <point x="148" y="115"/>
      <point x="148" y="284" type="curve" smooth="yes"/>
      <point x="148" y="519"/>
      <point x="274" y="675"/>
      <point x="444" y="696" type="curve"/>
      <point x="442" y="714" type="line"/>
      <point x="228" y="695"/>
      <point x="74" y="516"/>
      <point x="74" y="279" type="curve" smooth="yes"/>
      <point x="74" y="98"/>
      <point x="165" y="-14"/>
    </contour>
  </outline>
</glyph>
<glyph name="seven" format="2">
  <advance width="514"/>
  <unicode hex="0037"/>
  <outline>
    <contour>
      <point x="34" y="640" type="line"/>
      <point x="420" y="640" type="line"/>
      <point x="121" y="0" type="line"/>
      <point x="195" y="0" type="line"/>
      <point x="464" y="680" type="line"/>
      <point x="464" y="700" type="line"/>
      <point x="34" y="700" type="line"/>
    </contour>
  </outline>
</glyph>
<glyph name="nine" format="2">
  <advance width="586"/>
  <unicode hex="0039"/>
  <outline>
    <contour>
      <point x="164" y="-14" type="line"/>
      <point x="378" y="5"/>
      <point x="512" y="204"/>
      <point x="512" y="421" type="curve" smooth="yes"/>
      <point x="512" y="602"/>
      <point x="422" y="714"/>
      <point x="276" y="714" type="curve" smooth="yes"/>
      <point x="148" y="714"/>
      <point x="62" y="630"/>
      <point x="62" y="505" type="curve" smooth="yes"/>
      <point x="62" y="385"/>
      <point x="139" y="305"/>
      <point x="253" y="305" type="curve" smooth="yes"/>
      <point x="297" y="305"/>
      <point x="339" y="317"/>
      <point x="383" y="342" type="curve"/>
      <point x="374" y="358" type="line"/>
      <point x="343" y="342"/>
      <point x="309" y="333"/>
      <point x="278" y="333" type="curve" smooth="yes"/>
      <point x="191" y="333"/>
      <point x="136" y="403"/>
      <point x="136" y="513" type="curve" smooth="yes"/>
      <point x="136" y="620"/>
      <point x="192" y="690"/>
      <point x="276" y="690" type="curve" smooth="yes"/>
      <point x="375" y="690"/>
      <point x="438" y="585"/>
      <point x="438" y="416" type="curve" smooth="yes"/>
      <point x="438" y="201"/>
      <point x="332" y="25"/>
      <point x="162" y="4" type="curve"/>
    </contour>
  </outline>
</glyph>
<glyph name="less" format="2">
  <advance width="582"/>
  <unicode hex="003C"/>
  <outline>
    <contour>
      <point x="59" y="300" type="line"/>
      <point x="523" y="107" type="line"/>
      <point x="523" y="140" type="line"/>
      <point x="97" y="316" type="line"/>
      <point x="523" y="492" type="line"/>
      <point x="523" y="525" type="line"/>
      <point x="59" y="332" type="line"/>
    </contour>
  </outline>
</glyph>
<glyph name="equal" format="2">
  <advance width="582"/>
  <unicode hex="003D"/>
  <outline>
    <contour>
      <point x="59" y="375" type="line"/>
      <point x="523" y="375" type="line"/>
      <point x="523" y="405" type="line"/>
      <point x="59" y="405" type="line"/>
    </contour>
    <contour>
      <point x="59" y="205" type="line"/>
      <point x="523" y="205" type="line"/>
      <point x="523" y="235" type="line"/>
      <point x="59" y="235" type="line"/>
    </contour>
  </outline>
</glyph>
<glyph name="question" format="2">
  <advance width="488"/>
  <unicode hex="003F"/>
  <outline>
    <contour>
      <point x="310" y="375" type="line" smooth="yes"/>
      <point x="377" y="419"/>
      <point x="418" y="489"/>
      <point x="418" y="557" type="curve" smooth="yes"/>
      <point x="418" y="651"/>
      <point x="340" y="714"/>
      <point x="223" y="714" type="curve" smooth="yes"/>
      <point x="168" y="714"/>
      <point x="106" y="700"/>
      <point x="60" y="678" type="curve"/>
      <point x="65" y="624" type="line"/>
      <point x="71" y="624" type="line"/>
      <point x="113" y="666"/>
      <point x="173" y="690"/>
      <point x="223" y="690" type="curve" smooth="yes"/>
      <point x="296" y="690"/>
      <point x="344" y="636"/>
      <point x="344" y="552" type="curve" smooth="yes"/>
      <point x="344" y="493"/>
      <point x="321" y="442"/>
      <point x="274" y="401" type="curve" smooth="yes"/>
      <point x="174" y="312" type="line"/>
      <point x="180" y="173" type="line"/>
      <point x="200" y="173" type="line"/>
      <point x="207" y="308" type="line"/>
    </contour>
    <contour>
      <point x="138" y="42" type="curve" smooth="yes"/>
      <point x="138" y="12"/>
      <point x="160" y="-10"/>
      <point x="190" y="-10" type="curve" smooth="yes"/>
      <point x="220" y="-10"/>
      <point x="242" y="12"/>
      <point x="242" y="42" type="curve" smooth="yes"/>
      <point x="242" y="72"/>
      <point x="220" y="94"/>
      <point x="190" y="94" type="curve" smooth="yes"/>
      <point x="160" y="94"/>
      <point x="138" y="72"/>
    </contour>
  </outline>
</glyph>
<glyph name="at" format="2">
  <advance width="1001"/>
  <unicode hex="0040"/>
  <outline>
    <contour>
      <point x="555" y="583" type="curve" smooth="yes"/>
      <point x="419" y="583"/>
      <point x="305" y="460"/>
      <point x="305" y="319" type="curve" smooth="yes"/>
      <point x="305" y="215"/>
      <point x="366" y="148"/>
      <point x="458" y="148" type="curve" smooth="yes"/>
      <point x="523" y="148"/>
      <point x="574.21" y="182.104"/>
      <point x="601.21" y="247.104" type="curve"/>
      <point x="607.21" y="247.104" type="line"/>
      <point x="614.21" y="181.104"/>
      <point x="652" y="148"/>
      <point x="716" y="148" type="curve" smooth="yes"/>
      <point x="831" y="148"/>
      <point x="911" y="259"/>
      <point x="911" y="417" type="curve" smooth="yes"/>
      <point x="911" y="634"/>
      <point x="761" y="777"/>
      <point x="534" y="777" type="curve" smooth="yes"/>
      <point x="276" y="777"/>
      <point x="90" y="591"/>
      <point x="90" y="334" type="curve" smooth="yes"/>
      <point x="90" y="84"/>
      <point x="266" y="-77"/>
      <point x="539" y="-77" type="curve" smooth="yes"/>
      <point x="681" y="-77"/>
      <point x="786" y="-33"/>
      <point x="887" y="68" type="curve"/>
      <point x="875" y="81" type="line"/>
      <point x="776" y="-7"/>
      <point x="676" y="-47"/>
      <point x="552" y="-47" type="curve" smooth="yes"/>
      <point x="310" y="-47"/>
      <point x="150" y="107"/>
      <point x="150" y="340" type="curve" smooth="yes"/>
      <point x="150" y="579.12"/>
      <point x="312.124" y="753"/>
      <point x="532" y="753" type="curve" smooth="yes"/>
      <point x="726" y="753"/>
      <point x="859" y="613"/>
      <point x="859" y="404" type="curve" smooth="yes"/>
      <point x="859" y="269"/>
      <point x="803" y="177"/>
      <point x="724" y="177" type="curve" smooth="yes"/>
      <point x="674" y="177"/>
      <point x="645" y="212"/>
      <point x="645" y="275" type="curve" smooth="yes"/>
      <point x="645" y="288"/>
      <point x="646" y="301"/>
      <point x="649" y="318" type="curve" smooth="yes"/>
      <point x="689" y="541" type="line"/>
      <point x="638" y="546" type="line"/>
      <point x="597" y="318" type="line" smooth="yes"/>
      <point x="581" y="230"/>
      <point x="537" y="180" name="hr01"/>
      <point x="477" y="180" type="curve" smooth="yes"/>
      <point x="409" y="180"/>
      <point x="362" y="242"/>
      <point x="362" y="333" type="curve" smooth="yes"/>
      <point x="362" y="455"/>
      <point x="451" y="559"/>
      <point x="558" y="559" type="curve" smooth="yes"/>
      <point x="593" y="559"/>
      <point x="626" y="550"/>
      <point x="653" y="529" type="curve"/>
      <point x="689" y="541" type="line"/>
      <point x="656" y="567"/>
      <point x="605" y="583"/>
    </contour>
  </outline>
</glyph>
<glyph name="A" format="2">
  <advance width="658"/>
  <unicode hex="0041"/>
  <unicode hex="0061"/>
  <anchor x="329" y="0" name="bottom"/>
  <anchor x="578" y="0" name="ogonek"/>
  <anchor x="329" y="700" name="top"/>
  <outline>
    <contour>
      <point x="26" y="0" type="line"/>
      <point x="99" y="0" type="line"/>
      <point x="302" y="648" type="line"/>
      <point x="308" y="648" type="line"/>
      <point x="553" y="0" type="line"/>
      <point x="626" y="0" type="line"/>
      <point x="357" y="700" type="line"/>
      <point x="295" y="700" type="line"/>
    </contour>
    <contour>
      <point x="181" y="328" type="line"/>
      <point x="469" y="328" type="line"/>
      <point x="469" y="352" type="line"/>
      <point x="181" y="352" type="line"/>
    </contour>
  </outline>
</glyph>
<glyph name="B" format="2">
  <advance width="617"/>
  <unicode hex="0042"/>
  <unicode hex="0062"/>
  <anchor x="309" y="0" name="bottom"/>
  <anchor x="309" y="350" name="center"/>
  <anchor x="309" y="700" name="top"/>
  <outline>
    <contour>
      <point x="292" y="0" type="line" smooth="yes"/>
      <point x="453" y="0"/>
      <point x="547" y="69.075"/>
      <point x="547" y="184.516" type="curve" smooth="yes"/>
      <point x="547" y="283.871"/>
      <point x="478" y="352"/>
      <point x="364" y="367" type="curve"/>
      <point x="364" y="373" type="line"/>
      <point x="448.341" y="393"/>
      <point x="497" y="450.763" name="hr01"/>
      <point x="497" y="529.92" type="curve" smooth="yes"/>
      <point x="497" y="636.888"/>
      <point x="412.413" y="700"/>
      <point x="268.965" y="700" type="curve" smooth="yes"/>
      <point x="170" y="700" type="line"/>
      <point x="170" y="676" type="line"/>
      <point x="269.806" y="676" type="line" smooth="yes"/>
      <point x="374.976" y="676"/>
      <point x="427" y="626.714"/>
      <point x="427" y="526" type="curve" smooth="yes"/>
      <point x="427" y="425.286"/>
      <point x="374.845" y="376"/>
      <point x="269.405" y="376" type="curve" smooth="yes"/>
      <point x="185" y="376" type="line"/>
      <point x="185" y="352" type="line"/>
      <point x="292" y="352" type="line" smooth="yes"/>
      <point x="415" y="352"/>
      <point x="475" y="298.276" name="hr02"/>
      <point x="475" y="188" type="curve" smooth="yes"/>
      <point x="475" y="78.667"/>
      <point x="415" y="24"/>
      <point x="292" y="24" type="curve" smooth="yes"/>
      <point x="165" y="24" type="line"/>
      <point x="165" y="0" type="line"/>
    </contour>
    <contour>
      <point x="130" y="0" type="line"/>
      <point x="198" y="0" type="line"/>
      <point x="198" y="700" type="line"/>
      <point x="130" y="700" type="line"/>
    </contour>
  </outline>
</glyph>
<glyph name="D" format="2">
  <advance width="814"/>
  <unicode hex="0044"/>
  <unicode hex="0064"/>
  <anchor x="407" y="0" name="bottom"/>
  <anchor x="407" y="350" name="center"/>
  <anchor x="366" y="700" name="top"/>
  <outline>
    <contour>
      <point x="165" y="0" type="line"/>
      <point x="350" y="0" type="line" smooth="yes"/>
      <point x="581" y="0"/>
      <point x="734" y="141"/>
      <point x="734" y="350" type="curve" smooth="yes"/>
      <point x="734" y="559"/>
      <point x="581" y="700"/>
      <point x="350" y="700" type="curve" smooth="yes"/>
      <point x="173" y="700" type="line"/>
      <point x="173" y="676" type="line"/>
      <point x="350" y="676" type="line" smooth="yes"/>
      <point x="542.937" y="676"/>
      <point x="658" y="555.369"/>
      <point x="658" y="350" type="curve" smooth="yes"/>
      <point x="658" y="145"/>
      <point x="543" y="24"/>
      <point x="350" y="24" type="curve" smooth="yes"/>
      <point x="165" y="24" type="line"/>
    </contour>
    <contour>
      <point x="130" y="0" type="line"/>
      <point x="198" y="0" type="line"/>
      <point x="198" y="700" type="line"/>
      <point x="130" y="700" type="line"/>
    </contour>
  </outline>
</glyph>
<glyph name="E" format="2">
  <advance width="518"/>
  <unicode hex="0045"/>
  <unicode hex="0065"/>
  <anchor x="259" y="0" name="bottom"/>
  <anchor x="390" y="0" name="ogonek"/>
  <anchor x="279" y="700" name="top"/>
  <anchor x="20" y="700" name="topleft"/>
  <outline>
    <contour>
      <point x="188" y="355" type="line"/>
      <point x="198" y="355" type="line" smooth="yes"/>
      <point x="206.532" y="355"/>
      <point x="227.198" y="354"/>
      <point x="260" y="352" type="curve" smooth="yes"/>
      <point x="424" y="342" type="line"/>
      <point x="424" y="388" type="line"/>
      <point x="260" y="378" type="line" smooth="yes"/>
      <point x="227.198" y="376"/>
      <point x="206.532" y="375"/>
      <point x="198" y="375" type="curve" smooth="yes"/>
      <point x="188" y="375" type="line"/>
    </contour>
    <contour>
      <point x="130" y="0" type="line"/>
      <point x="198" y="0" type="line"/>
      <point x="198" y="700" type="line"/>
      <point x="130" y="700" type="line"/>
    </contour>
    <contour>
      <point x="188" y="700" type="line"/>
      <point x="188" y="680" type="line"/>
      <point x="197.914" y="680" type="line" smooth="yes"/>
      <point x="208.905" y="680"/>
      <point x="229.6" y="678"/>
      <point x="260" y="674" type="curve" smooth="yes"/>
      <point x="435" y="651" type="line"/>
      <point x="435" y="700" type="line"/>
    </contour>
    <contour>
      <point x="188" y="0" type="line"/>
      <point x="438" y="0" type="line"/>
      <point x="438" y="49" type="line"/>
      <point x="261" y="26" type="line" smooth="yes"/>
      <point x="231" y="22"/>
      <point x="209.6" y="20"/>
      <point x="198" y="20" type="curve" smooth="yes"/>
      <point x="188" y="20" type="line"/>
    </contour>
  </outline>
</glyph>
<glyph name="F" format="2">
  <advance width="489"/>
  <unicode hex="0046"/>
  <unicode hex="0066"/>
  <anchor x="245" y="0" name="bottom"/>
  <anchor x="245" y="700" name="top"/>
  <outline>
    <contour>
      <point x="188" y="347" type="line"/>
      <point x="198" y="347" type="line" smooth="yes"/>
      <point x="208.733" y="347"/>
      <point x="229.4" y="346"/>
      <point x="260" y="344" type="curve" smooth="yes"/>
      <point x="413" y="334" type="line"/>
      <point x="413" y="380" type="line"/>
      <point x="260" y="370" type="line" smooth="yes"/>
      <point x="229.4" y="368"/>
      <point x="208.733" y="367"/>
      <point x="198" y="367" type="curve" smooth="yes"/>
      <point x="188" y="367" type="line"/>
    </contour>
    <contour>
      <point x="130" y="0" type="line"/>
      <point x="198" y="0" type="line"/>
      <point x="198" y="700" type="line"/>
      <point x="130" y="700" type="line"/>
    </contour>
    <contour>
      <point x="188" y="700" type="line"/>
      <point x="188" y="680" type="line"/>
      <point x="197.914" y="680" type="line" smooth="yes"/>
      <point x="207.981" y="680"/>
      <point x="228.001" y="677.94"/>
      <point x="257.974" y="673.82" type="curve" smooth="yes"/>
      <point x="424" y="651" type="line"/>
      <point x="424" y="700" type="line"/>
    </contour>
  </outline>
</glyph>
<glyph name="G" format="2">
  <advance width="832"/>
  <unicode hex="0047"/>
  <unicode hex="0067"/>
  <anchor x="472" y="0" name="bottom"/>
  <anchor x="470" y="700" name="top"/>
  <outline>
    <contour>
      <point x="664" y="59" type="line"/>
      <point x="732" y="84" type="line"/>
      <point x="732" y="356" type="line"/>
      <point x="664" y="356" type="line"/>
    </contour>
    <contour>
      <point x="696" y="104" type="line"/>
      <point x="649" y="45"/>
      <point x="568" y="10"/>
      <point x="471" y="10" type="curve" smooth="yes"/>
      <point x="283" y="10"/>
      <point x="156" y="146"/>
      <point x="156" y="350" type="curve" smooth="yes"/>
      <point x="156" y="554"/>
      <point x="283" y="690"/>
      <point x="471" y="690" type="curve" smooth="yes"/>
      <point x="555" y="690"/>
      <point x="632" y="665"/>
      <point x="686" y="619" type="curve"/>
      <point x="692" y="619" type="line"/>
      <point x="697" y="675" type="line"/>
      <point x="643" y="698"/>
      <point x="543" y="714"/>
      <point x="471" y="714" type="curve" smooth="yes"/>
      <point x="248" y="714"/>
      <point x="80" y="557"/>
      <point x="80" y="350" type="curve" smooth="yes"/>
      <point x="80" y="143"/>
      <point x="248" y="-14"/>
      <point x="471" y="-14" type="curve" smooth="yes"/>
      <point x="580" y="-14"/>
      <point x="671" y="23"/>
      <point x="732" y="84" type="curve"/>
    </contour>
    <contour>
      <point x="674" y="356" type="line"/>
      <point x="479" y="356" type="line"/>
      <point x="479" y="332.089" type="line"/>
      <point x="674" y="332.089" type="line"/>
    </contour>
  </outline>
</glyph>
<glyph name="H" format="2">
  <advance width="816"/>
  <unicode hex="0048"/>
  <unicode hex="0068"/>
  <anchor x="408" y="0" name="bottom"/>
  <anchor x="408" y="350" name="center"/>
  <anchor x="408" y="700" name="top"/>
  <anchor x="20" y="700" name="topleft"/>
  <outline>
    <contour>
      <point x="130" y="0" type="line"/>
      <point x="198" y="0" type="line"/>
      <point x="198" y="700" type="line"/>
      <point x="130" y="700" type="line"/>
    </contour>
    <contour>
      <point x="618" y="0" type="line"/>
      <point x="686" y="0" type="line"/>
      <point x="686" y="700" type="line"/>
      <point x="618" y="700" type="line"/>
    </contour>
    <contour>
      <point x="158" y="352" type="line"/>
      <point x="658" y="352" type="line"/>
      <point x="658" y="376" type="line"/>
      <point x="158" y="376" type="line"/>
    </contour>
  </outline>
</glyph>
<glyph name="I" format="2">
  <advance width="328"/>
  <unicode hex="0049"/>
  <unicode hex="0131"/>
  <anchor x="164" y="0" name="bottom"/>
  <anchor x="198" y="0" name="ogonek"/>
  <anchor x="164" y="700" name="top"/>
  <anchor x="20" y="700" name="topleft"/>
  <outline>
    <contour>
      <point x="130" y="0" type="line"/>
      <point x="198" y="0" type="line"/>
      <point x="198" y="700" type="line"/>
      <point x="130" y="700" type="line"/>
    </contour>
  </outline>
</glyph>
<glyph name="J" format="2">
  <advance width="328"/>
  <unicode hex="004A"/>
  <unicode hex="006A"/>
  <anchor x="164" y="0" name="bottom"/>
  <anchor x="164" y="700" name="top"/>
  <outline>
    <contour>
      <point x="130" y="62" type="line" smooth="yes"/>
      <point x="130" y="-106"/>
      <point x="106.366" y="-187.211"/>
      <point x="53.107" y="-225.112" type="curve"/>
      <point x="55.851" y="-229.88" type="line"/>
      <point x="151.864" y="-187.39"/>
      <point x="198" y="-100"/>
      <point x="198" y="68" type="curve" smooth="yes"/>
      <point x="198" y="700" type="line"/>
      <point x="130" y="700" type="line"/>
    </contour>
  </outline>
</glyph>
<glyph name="K" format="2">
  <advance width="672"/>
  <unicode hex="004B"/>
  <unicode hex="006B"/>
  <anchor x="372" y="0" name="bottom"/>
  <anchor x="336" y="700" name="top"/>
  <outline>
    <contour>
      <point x="562" y="0" type="line"/>
      <point x="652" y="0" type="line"/>
      <point x="295" y="387" type="line"/>
      <point x="624" y="700" type="line"/>
      <point x="538" y="700" type="line"/>
      <point x="234" y="359" type="line"/>
    </contour>
    <contour>
      <point x="130" y="0" type="line"/>
      <point x="198" y="0" type="line"/>
      <point x="198" y="700" type="line"/>
      <point x="130" y="700" type="line"/>
    </contour>
  </outline>
</glyph>
<glyph name="L" format="2">
  <advance width="461"/>
  <unicode hex="004C"/>
  <unicode hex="006C"/>
  <anchor x="280" y="0" name="bottom"/>
  <anchor x="231" y="350" name="center"/>
  <anchor x="166" y="700" name="top"/>
  <anchor x="441" y="700" name="topright"/>
  <outline>
    <contour>
      <point x="130" y="0" type="line"/>
      <point x="198" y="0" type="line"/>
      <point x="198" y="700" type="line"/>
      <point x="130" y="700" type="line"/>
    </contour>
    <contour>
      <point x="130" y="700" type="line"/>
      <point x="130" y="0" type="line"/>
      <point x="198" y="0" type="line"/>
      <point x="198" y="700" type="line"/>
    </contour>
    <contour>
      <point x="188" y="0" type="line"/>
      <point x="424" y="0" type="line"/>
      <point x="424" y="51" type="line"/>
      <point x="257.974" y="26.18" type="line" smooth="yes"/>
      <point x="230.416" y="22.06"/>
      <point x="210.396" y="20"/>
      <point x="197.914" y="20" type="curve" smooth="yes"/>
      <point x="188" y="20" type="line"/>
    </contour>
  </outline>
</glyph>
<glyph name="M" format="2">
  <advance width="919"/>
  <unicode hex="004D"/>
  <unicode hex="006D"/>
  <anchor x="460" y="0" name="bottom"/>
  <anchor x="460" y="700" name="top"/>
  <outline>
    <contour>
      <point x="789" y="700" type="line"/>
      <point x="717" y="700" type="line"/>
      <point x="481" y="246" type="line"/>
      <point x="475" y="246" type="line"/>
      <point x="160" y="714" type="line"/>
      <point x="140" y="714" type="line"/>
      <point x="115" y="0" type="line"/>
      <point x="183" y="0" type="line"/>
      <point x="161" y="587" type="line"/>
      <point x="167" y="587" type="line"/>
      <point x="442" y="178" type="line"/>
      <point x="473" y="178" type="line"/>
      <point x="715" y="642" type="line"/>
      <point x="721" y="642" type="line"/>
      <point x="721" y="0" type="line"/>
      <point x="789" y="0" type="line"/>
    </contour>
  </outline>
</glyph>
<glyph name="N" format="2">
  <advance width="822"/>
  <unicode hex="004E"/>
  <unicode hex="006E"/>
  <anchor x="411" y="0" name="bottom"/>
  <anchor x="411" y="700" name="top"/>
  <outline>
    <contour>
      <point x="115" y="0" type="line"/>
      <point x="183" y="0" type="line"/>
      <point x="161" y="594" type="line"/>
      <point x="167" y="594" type="line"/>
      <point x="670" y="-14" type="line"/>
      <point x="682" y="-14" type="line"/>
      <point x="707" y="700" type="line"/>
      <point x="639" y="700" type="line"/>
      <point x="661" y="106" type="line"/>
      <point x="655" y="106" type="line"/>
      <point x="152" y="714" type="line"/>
      <point x="140" y="714" type="line"/>
    </contour>
  </outline>
</glyph>
<glyph name="O" format="2">
  <advance width="888"/>
  <unicode hex="004F"/>
  <unicode hex="006F"/>
  <anchor x="444" y="0" name="bottom"/>
  <anchor x="444" y="350" name="center"/>
  <anchor x="482" y="0" name="ogonek"/>
  <anchor x="444" y="700" name="top"/>
  <anchor x="20" y="700" name="topleft"/>
  <anchor x="868" y="700" name="topright"/>
  <outline>
    <contour>
      <point x="80" y="350" type="curve" smooth="yes"/>
      <point x="80" y="144"/>
      <point x="238" y="-14"/>
      <point x="444" y="-14" type="curve" smooth="yes"/>
      <point x="650" y="-14"/>
      <point x="808" y="144"/>
      <point x="808" y="350" type="curve" smooth="yes"/>
      <point x="808" y="556"/>
      <point x="650" y="714"/>
      <point x="444" y="714" type="curve" smooth="yes"/>
      <point x="238" y="714"/>
      <point x="80" y="556"/>
    </contour>
    <contour>
      <point x="156" y="350" type="curve" smooth="yes"/>
      <point x="156" y="553.014"/>
      <point x="272.448" y="690"/>
      <point x="444" y="690" type="curve" smooth="yes"/>
      <point x="616.076" y="690"/>
      <point x="732" y="552.655"/>
      <point x="732" y="350" type="curve" smooth="yes"/>
      <point x="732" y="147.025"/>
      <point x="616.357" y="10"/>
      <point x="444" y="10" type="curve" smooth="yes"/>
      <point x="271.717" y="10"/>
      <point x="156" y="146.727"/>
    </contour>
  </outline>
</glyph>
<glyph name="P" format="2">
  <advance width="570"/>
  <unicode hex="0050"/>
  <unicode hex="0070"/>
  <anchor x="285" y="0" name="bottom"/>
  <anchor x="285" y="700" name="top"/>
  <outline>
    <contour>
      <point x="161" y="310" type="line"/>
      <point x="255" y="310" type="line" smooth="yes"/>
      <point x="416" y="310"/>
      <point x="510" y="382"/>
      <point x="510" y="505" type="curve" smooth="yes"/>
      <point x="510" y="628"/>
      <point x="416" y="700"/>
      <point x="255" y="700" type="curve" smooth="yes"/>
      <point x="161" y="700" type="line"/>
      <point x="161" y="676" type="line"/>
      <point x="255" y="676" type="line" smooth="yes"/>
      <point x="376" y="676"/>
      <point x="438" y="619"/>
      <point x="438" y="505" type="curve" smooth="yes"/>
      <point x="438" y="391"/>
      <point x="376" y="334"/>
      <point x="255" y="334" type="curve" smooth="yes"/>
      <point x="161" y="334" type="line"/>
    </contour>
    <contour>
      <point x="130" y="0" type="line"/>
      <point x="198" y="0" type="line"/>
      <point x="198" y="700" type="line"/>
      <point x="130" y="700" type="line"/>
    </contour>
  </outline>
</glyph>
<glyph name="Q" format="2">
  <advance width="888"/>
  <unicode hex="0051"/>
  <unicode hex="0071"/>
  <anchor x="444" y="0" name="bottom"/>
  <anchor x="444" y="700" name="top"/>
  <outline>
    <contour>
      <point x="419" y="-5" type="line"/>
      <point x="444" y="-14" type="line"/>
      <point x="560" y="-14" type="line" smooth="yes"/>
      <point x="651" y="-14"/>
      <point x="689" y="-72"/>
      <point x="724" y="-125" type="curve" smooth="yes"/>
      <point x="753" y="-170"/>
      <point x="779" y="-211"/>
      <point x="857" y="-211" type="curve" smooth="yes"/>
      <point x="904" y="-211" type="line"/>
      <point x="904" y="-205" type="line"/>
      <point x="852" y="-190"/>
      <point x="828" y="-158"/>
      <point x="787" y="-97" type="curve" smooth="yes"/>
      <point x="736" y="-21"/>
      <point x="690" y="11"/>
      <point x="595" y="11" type="curve"/>
      <point x="595" y="18" type="line"/>
      <point x="422" y="2" type="line"/>
    </contour>
    <contour>
      <point x="80" y="350" type="curve" smooth="yes"/>
      <point x="80" y="144"/>
      <point x="238" y="-14"/>
      <point x="444" y="-14" type="curve" smooth="yes"/>
      <point x="650" y="-14"/>
      <point x="808" y="144"/>
      <point x="808" y="350" type="curve" smooth="yes"/>
      <point x="808" y="556"/>
      <point x="650" y="714"/>
      <point x="444" y="714" type="curve" smooth="yes"/>
      <point x="238" y="714"/>
      <point x="80" y="556"/>
    </contour>
    <contour>
      <point x="156" y="350" type="curve" smooth="yes"/>
      <point x="156" y="553.014"/>
      <point x="272.448" y="690"/>
      <point x="444" y="690" type="curve" smooth="yes"/>
      <point x="616.076" y="690"/>
      <point x="732" y="552.655"/>
      <point x="732" y="350" type="curve" smooth="yes"/>
      <point x="732" y="147.025"/>
      <point x="616.357" y="10"/>
      <point x="444" y="10" type="curve" smooth="yes"/>
      <point x="271.717" y="10"/>
      <point x="156" y="146.727"/>
    </contour>
  </outline>
</glyph>
<glyph name="R" format="2">
  <advance width="642"/>
  <unicode hex="0052"/>
  <unicode hex="0072"/>
  <anchor x="370" y="0" name="bottom"/>
  <anchor x="282" y="700" name="top"/>
  <outline>
    <contour>
      <point x="130" y="700" type="line"/>
      <point x="130" y="0" type="line"/>
      <point x="198" y="0" type="line"/>
      <point x="198" y="676" type="line"/>
      <point x="264" y="676" type="line" smooth="yes"/>
      <point x="365" y="676"/>
      <point x="415" y="627"/>
      <point x="415" y="530.043" type="curve" smooth="yes"/>
      <point x="415" y="429.957"/>
      <point x="362" y="382"/>
      <point x="254" y="382" type="curve" smooth="yes"/>
      <point x="248" y="382" type="line"/>
      <point x="248" y="364" type="line"/>
      <point x="253.788" y="364" type="line" smooth="yes"/>
      <point x="345.431" y="364"/>
      <point x="409.814" y="311.655"/>
      <point x="447.686" y="175.223" type="curve" smooth="yes"/>
      <point x="485.058" y="40.591"/>
      <point x="519" y="0"/>
      <point x="607" y="0" type="curve" smooth="yes"/>
      <point x="648" y="0" type="line"/>
      <point x="648" y="6" type="line"/>
      <point x="586" y="19.528"/>
      <point x="554.282" y="51.386"/>
      <point x="515.964" y="183.795" type="curve" smooth="yes"/>
      <point x="488.01" y="280.393"/>
      <point x="433.364" y="349"/>
      <point x="345" y="367" type="curve"/>
      <point x="345" y="373" type="line"/>
      <point x="437" y="391"/>
      <point x="487" y="448.194"/>
      <point x="487" y="531.436" type="curve" smooth="yes"/>
      <point x="487" y="637.569"/>
      <point x="405" y="700"/>
      <point x="264" y="700" type="curve" smooth="yes"/>
    </contour>
  </outline>
</glyph>
<glyph name="T" format="2">
  <advance width="648"/>
  <unicode hex="0054"/>
  <unicode hex="0074"/>
  <anchor x="324" y="0" name="bottom"/>
  <anchor x="324" y="350" name="center"/>
  <anchor x="324" y="700" name="top"/>
  <outline>
    <contour>
      <point x="290" y="0" type="line"/>
      <point x="358" y="0" type="line"/>
      <point x="358" y="700" type="line"/>
      <point x="290" y="700" type="line"/>
    </contour>
    <contour>
      <point x="348" y="700" type="line"/>
      <point x="348" y="680" type="line"/>
      <point x="358" y="680" type="line" smooth="yes"/>
      <point x="367.973" y="680"/>
      <point x="388.64" y="678"/>
      <point x="420" y="674" type="curve" smooth="yes"/>
      <point x="616" y="649" type="line"/>
      <point x="616" y="700" type="line"/>
    </contour>
    <contour>
      <point x="300.448" y="700" type="line"/>
      <point x="32.448" y="700" type="line"/>
      <point x="32.448" y="649" type="line"/>
      <point x="228.448" y="674" type="line" smooth="yes"/>
      <point x="259.808" y="678"/>
      <point x="280.475" y="680"/>
      <point x="290.448" y="680" type="curve" smooth="yes"/>
      <point x="300.448" y="680" type="line"/>
    </contour>
  </outline>
</glyph>
<glyph name="U" format="2">
  <advance width="798"/>
  <unicode hex="0055"/>
  <unicode hex="0075"/>
  <anchor x="399" y="0" name="bottom"/>
  <anchor x="449" y="0" name="ogonek"/>
  <anchor x="403" y="700" name="top"/>
  <anchor x="778" y="700" name="topright"/>
  <outline>
    <contour>
      <point x="120" y="700" type="line"/>
      <point x="120" y="280" type="line" smooth="yes"/>
      <point x="120" y="97"/>
      <point x="226.965" y="-14"/>
      <point x="406.626" y="-14" type="curve" smooth="yes"/>
      <point x="573.824" y="-14"/>
      <point x="665.212" y="69.992"/>
      <point x="671" y="230" type="curve" smooth="yes"/>
      <point x="688" y="700" type="line"/>
      <point x="620" y="700" type="line"/>
      <point x="637" y="230" type="line" smooth="yes"/>
      <point x="641.411" y="108.057"/>
      <point x="550" y="22"/>
      <point x="415" y="22" type="curve" smooth="yes"/>
      <point x="271" y="22"/>
      <point x="188" y="117"/>
      <point x="188" y="278" type="curve" smooth="yes"/>
      <point x="188" y="700" type="line"/>
    </contour>
  </outline>
</glyph>
<glyph name="V" format="2">
  <advance width="716"/>
  <unicode hex="0056"/>
  <unicode hex="0076"/>
  <anchor x="358" y="0" name="bottom"/>
  <anchor x="358" y="700" name="top"/>
  <outline>
    <contour>
      <point x="32" y="700" type="line"/>
      <point x="350" y="-14" type="line"/>
      <point x="372" y="-14" type="line"/>
      <point x="690" y="700" type="line"/>
      <point x="615" y="700" type="line"/>
      <point x="386" y="78" type="line"/>
      <point x="380" y="78" type="line"/>
      <point x="107" y="700" type="line"/>
    </contour>
  </outline>
</glyph>
<glyph name="W" format="2">
  <advance width="1053"/>
  <unicode hex="0057"/>
  <unicode hex="0077"/>
  <anchor x="527" y="0" name="bottom"/>
  <anchor x="496" y="700" name="top"/>
  <outline>
    <contour>
      <point x="32" y="700" type="line"/>
      <point x="320" y="-14" type="line"/>
      <point x="342" y="-14" type="line"/>
      <point x="545" y="489" type="line"/>
      <point x="523" y="501" type="line"/>
      <point x="356" y="88" type="line"/>
      <point x="350" y="88" type="line"/>
      <point x="105" y="700" type="line"/>
    </contour>
    <contour>
      <point x="429" y="700" type="line"/>
      <point x="717" y="-14" type="line"/>
      <point x="739" y="-14" type="line"/>
      <point x="1027" y="700" type="line"/>
      <point x="954" y="700" type="line"/>
      <point x="752" y="90" type="line"/>
      <point x="746" y="90" type="line"/>
      <point x="502" y="700" type="line"/>
    </contour>
  </outline>
</glyph>
<glyph name="X" format="2">
  <advance width="632"/>
  <unicode hex="0058"/>
  <unicode hex="0078"/>
  <anchor x="316" y="0" name="bottom"/>
  <anchor x="316" y="700" name="top"/>
  <outline>
    <contour>
      <point x="526" y="0" type="line"/>
      <point x="606" y="0" type="line"/>
      <point x="132" y="700" type="line"/>
      <point x="52" y="700" type="line"/>
    </contour>
    <contour>
      <point x="32" y="0" type="line"/>
      <point x="112" y="0" type="line"/>
      <point x="312" y="341" type="line"/>
      <point x="297" y="359" type="line"/>
    </contour>
    <contour>
      <point x="506" y="700" type="line"/>
      <point x="328" y="397" type="line"/>
      <point x="343" y="379" type="line"/>
      <point x="586" y="700" type="line"/>
    </contour>
    <contour>
      <point x="297" y="323" type="line"/>
      <point x="313" y="323" type="line"/>
      <point x="313" y="331" type="line"/>
      <point x="297" y="331" type="line"/>
    </contour>
    <contour>
      <point x="326" y="401" type="line"/>
      <point x="342" y="401" type="line"/>
      <point x="342" y="409" type="line"/>
      <point x="326" y="409" type="line"/>
    </contour>
  </outline>
</glyph>
<glyph name="Y" format="2">
  <advance width="617"/>
  <unicode hex="0059"/>
  <unicode hex="0079"/>
  <anchor x="309" y="0" name="bottom"/>
  <anchor x="312" y="700" name="top"/>
  <anchor x="20" y="700" name="topleft"/>
  <outline>
    <contour>
      <point x="280" y="0" type="line"/>
      <point x="352" y="0" type="line"/>
      <point x="352" y="310" type="line"/>
      <point x="591" y="700" type="line"/>
      <point x="515" y="700" type="line"/>
      <point x="337" y="334" type="line"/>
      <point x="331" y="334" type="line"/>
      <point x="108" y="700" type="line"/>
      <point x="32" y="700" type="line"/>
      <point x="280" y="296" type="line"/>
    </contour>
  </outline>
</glyph>
<glyph name="Z" format="2">
  <advance width="631"/>
  <unicode hex="005A"/>
  <unicode hex="007A"/>
  <anchor x="316" y="0" name="bottom"/>
  <anchor x="316" y="350" name="center"/>
  <anchor x="328" y="700" name="top"/>
  <outline>
    <contour>
      <point x="45" y="20" type="line"/>
      <point x="125" y="20" type="line"/>
      <point x="571" y="680" type="line"/>
      <point x="491" y="680" type="line"/>
    </contour>
    <contour>
      <point x="71" y="700" type="line"/>
      <point x="71" y="651" type="line"/>
      <point x="418" y="676" type="line" smooth="yes"/>
      <point x="455.924" y="678.732"/>
      <point x="480.257" y="680.066"/>
      <point x="491" y="680" type="curve"/>
      <point x="571" y="680" type="line"/>
      <point x="571" y="700" type="line"/>
    </contour>
    <contour>
      <point x="575" y="0" type="line"/>
      <point x="575" y="51" type="line"/>
      <point x="198" y="24" type="line" smooth="yes"/>
      <point x="160.667" y="21.333"/>
      <point x="136.333" y="20"/>
      <point x="125" y="20" type="curve" smooth="yes"/>
      <point x="45" y="20" type="line"/>
      <point x="45" y="0" type="line"/>
    </contour>
  </outline>
</glyph>
<glyph name="bracketleft" format="2">
  <advance width="372"/>
  <unicode hex="005B"/>
  <outline>
    <contour>
      <point x="130" y="-68" type="line"/>
      <point x="192" y="-68" type="line"/>
      <point x="192" y="768" type="line"/>
      <point x="130" y="768" type="line"/>
    </contour>
    <contour>
      <point x="146" y="-68" type="line"/>
      <point x="317" y="-68" type="line"/>
      <point x="317" y="-50" type="line"/>
      <point x="146" y="-50" type="line"/>
    </contour>
    <contour>
      <point x="146" y="750" type="line"/>
      <point x="317" y="750" type="line"/>
      <point x="317" y="768" type="line"/>
      <point x="146" y="768" type="line"/>
    </contour>
  </outline>
</glyph>
<glyph name="asciicircum" format="2">
  <advance width="582"/>
  <unicode hex="005E"/>
  <outline>
    <contour>
      <point x="269" y="700" type="line"/>
      <point x="71" y="313" type="line"/>
      <point x="105" y="313" type="line"/>
      <point x="290" y="678" type="line"/>
      <point x="477" y="313" type="line"/>
      <point x="511" y="313" type="line"/>
      <point x="310" y="700" type="line"/>
    </contour>
  </outline>
</glyph>
<glyph name="bar" format="2">
  <advance width="292"/>
  <unicode hex="007C"/>
  <outline>
    <contour>
      <point x="130" y="-68" type="line"/>
      <point x="162" y="-68" type="line"/>
      <point x="162" y="768" type="line"/>
      <point x="130" y="768" type="line"/>
    </contour>
  </outline>
</glyph>
<glyph name="asciitilde" format="2">
  <advance width="582"/>
  <unicode hex="007E"/>
  <outline>
    <contour>
      <point x="49" y="304" type="curve"/>
      <point x="69" y="287" type="line"/>
      <point x="110" y="332"/>
      <point x="137" y="351"/>
      <point x="178" y="351" type="curve" smooth="yes"/>
      <point x="208" y="351"/>
      <point x="236" y="341"/>
      <point x="288" y="311" type="curve" smooth="yes"/>
      <point x="340" y="282"/>
      <point x="367" y="272"/>
      <point x="398" y="272" type="curve" smooth="yes"/>
      <point x="438" y="272"/>
      <point x="482" y="289"/>
      <point x="533" y="349" type="curve"/>
      <point x="513" y="366" type="line"/>
      <point x="472" y="321"/>
      <point x="445" y="302"/>
      <point x="404" y="302" type="curve" smooth="yes"/>
      <point x="374" y="302"/>
      <point x="346" y="312"/>
      <point x="294" y="342" type="curve" smooth="yes"/>
      <point x="242" y="371"/>
      <point x="215" y="381"/>
      <point x="184" y="381" type="curve" smooth="yes"/>
      <point x="144" y="381"/>
      <point x="100" y="364"/>
    </contour>
  </outline>
</glyph>
<glyph name="cent" format="2">
  <advance width="559"/>
  <unicode hex="00A2"/>
  <outline>
    <contour>
      <point x="499" y="69" type="line"/>
      <point x="494" y="69" type="line"/>
      <point x="451" y="32"/>
      <point x="397" y="10"/>
      <point x="337" y="10" type="curve" smooth="yes"/>
      <point x="217.685" y="10"/>
      <point x="140" y="101.256"/>
      <point x="140" y="242" type="curve" smooth="yes"/>
      <point x="140" y="383.093"/>
      <point x="218.39" y="474"/>
      <point x="337" y="474" type="curve" smooth="yes"/>
      <point x="397" y="474"/>
      <point x="446" y="452"/>
      <point x="485" y="416" type="curve"/>
      <point x="490" y="416" type="line"/>
      <point x="494" y="465" type="line"/>
      <point x="442" y="486"/>
      <point x="388" y="498"/>
      <point x="337" y="498" type="curve" smooth="yes"/>
      <point x="185" y="498"/>
      <point x="70" y="388"/>
      <point x="70" y="242" type="curve" smooth="yes"/>
      <point x="70" y="96"/>
      <point x="185" y="-14"/>
      <point x="337" y="-14" type="curve" smooth="yes"/>
      <point x="389" y="-14"/>
      <point x="458" y="-1"/>
      <point x="494" y="16" type="curve"/>
    </contour>
    <contour>
      <point x="312" y="-98" type="line"/>
      <point x="338" y="-98" type="line"/>
      <point x="338" y="582" type="line"/>
      <point x="312" y="582" type="line"/>
    </contour>
  </outline>
</glyph>
<glyph name="sterling" format="2">
  <advance width="545"/>
  <unicode hex="00A3"/>
  <outline>
    <contour>
      <point x="57" y="0" type="line"/>
      <point x="487" y="0" type="line"/>
      <point x="487" y="60" type="line"/>
      <point x="118" y="60" type="line"/>
      <point x="220" y="178"/>
      <point x="250" y="234"/>
      <point x="250" y="309" type="curve" smooth="yes"/>
      <point x="250" y="350"/>
      <point x="241" y="385"/>
      <point x="214" y="438" type="curve" smooth="yes"/>
      <point x="180" y="505"/>
      <point x="168" y="535"/>
      <point x="168" y="569" type="curve" smooth="yes"/>
      <point x="168" y="642"/>
      <point x="223" y="690"/>
      <point x="305" y="690" type="curve" smooth="yes"/>
      <point x="358" y="690"/>
      <point x="407" y="671"/>
      <point x="448" y="629" type="curve"/>
      <point x="454" y="629" type="line"/>
      <point x="459" y="684" type="line"/>
      <point x="425" y="701"/>
      <point x="355" y="714"/>
      <point x="305" y="714" type="curve" smooth="yes"/>
      <point x="190" y="714"/>
      <point x="112" y="644"/>
      <point x="112" y="538" type="curve" smooth="yes"/>
      <point x="112" y="498"/>
      <point x="123" y="459"/>
      <point x="152" y="402" type="curve" smooth="yes"/>
      <point x="179" y="350"/>
      <point x="188" y="320"/>
      <point x="188" y="288" type="curve" smooth="yes"/>
      <point x="188" y="219"/>
      <point x="147" y="139"/>
      <point x="57" y="18" type="curve"/>
    </contour>
    <contour>
      <point x="63" y="327" type="line"/>
      <point x="403" y="327" type="line"/>
      <point x="403" y="351" type="line"/>
      <point x="63" y="351" type="line"/>
    </contour>
  </outline>
</glyph>
<glyph name="currency" format="2">
  <advance width="582"/>
  <unicode hex="00A4"/>
  <outline>
    <contour>
      <point x="95" y="324" type="curve" smooth="yes"/>
      <point x="95" y="209"/>
      <point x="176" y="128"/>
      <point x="291" y="128" type="curve" smooth="yes"/>
      <point x="406" y="128"/>
      <point x="487" y="209"/>
      <point x="487" y="324" type="curve" smooth="yes"/>
      <point x="487" y="439"/>
      <point x="406" y="520"/>
      <point x="291" y="520" type="curve" smooth="yes"/>
      <point x="176" y="520"/>
      <point x="95" y="439"/>
    </contour>
    <contour>
      <point x="291" y="156" type="curve" smooth="yes"/>
      <point x="196" y="156"/>
      <point x="129" y="225"/>
      <point x="129" y="324" type="curve" smooth="yes"/>
      <point x="129" y="423"/>
      <point x="196" y="492"/>
      <point x="291" y="492" type="curve" smooth="yes"/>
      <point x="386" y="492"/>
      <point x="453" y="423"/>
      <point x="453" y="324" type="curve" smooth="yes"/>
      <point x="453" y="225"/>
      <point x="386" y="156"/>
    </contour>
    <contour>
      <point x="154" y="439" type="line"/>
      <point x="176" y="461" type="line"/>
      <point x="99" y="538" type="line"/>
      <point x="77" y="516" type="line"/>
    </contour>
    <contour>
      <point x="483" y="110" type="line"/>
      <point x="505" y="132" type="line"/>
      <point x="428" y="209" type="line"/>
      <point x="406" y="187" type="line"/>
    </contour>
    <contour>
      <point x="176" y="187" type="line"/>
      <point x="154" y="209" type="line"/>
      <point x="77" y="132" type="line"/>
      <point x="99" y="110" type="line"/>
    </contour>
    <contour>
      <point x="505" y="516" type="line"/>
      <point x="483" y="538" type="line"/>
      <point x="406" y="461" type="line"/>
      <point x="428" y="439" type="line"/>
    </contour>
  </outline>
</glyph>
<glyph name="yen" format="2">
  <advance width="617"/>
  <unicode hex="00A5"/>
  <anchor x="309" y="0" name="bottom"/>
  <anchor x="312" y="700" name="top"/>
  <anchor x="20" y="700" name="topleft"/>
  <outline>
    <contour>
      <point x="102" y="156" type="line"/>
      <point x="506" y="156" type="line"/>
      <point x="506" y="180" type="line"/>
      <point x="102" y="180" type="line"/>
    </contour>
    <contour>
      <point x="102" y="262" type="line"/>
      <point x="506" y="262" type="line"/>
      <point x="506" y="286" type="line"/>
      <point x="102" y="286" type="line"/>
    </contour>
    <component base="Y"/>
  </outline>
</glyph>
<glyph name="brokenbar" format="2">
  <advance width="290"/>
  <unicode hex="00A6"/>
  <outline>
    <contour>
      <point x="130" y="436" type="line"/>
      <point x="160" y="436" type="line"/>
      <point x="160" y="768" type="line"/>
      <point x="130" y="768" type="line"/>
    </contour>
    <contour>
      <point x="160" y="264" type="line"/>
      <point x="130" y="264" type="line"/>
      <point x="130" y="-68" type="line"/>
      <point x="160" y="-68" type="line"/>
    </contour>
  </outline>
</glyph>
<glyph name="section" format="2">
  <advance width="504"/>
  <unicode hex="00A7"/>
  <outline>
    <contour>
      <point x="280" y="171" type="line"/>
      <point x="373" y="187"/>
      <point x="430" y="246"/>
      <point x="430" y="323" type="curve" smooth="yes"/>
      <point x="430" y="387"/>
      <point x="391" y="425"/>
      <point x="281" y="468" type="curve" smooth="yes"/>
      <point x="183" y="505"/>
      <point x="152" y="536"/>
      <point x="152" y="589" type="curve" smooth="yes"/>
      <point x="152" y="652"/>
      <point x="195" y="692"/>
      <point x="259" y="692" type="curve" smooth="yes"/>
      <point x="302" y="692"/>
      <point x="341" y="674"/>
      <point x="377" y="639" type="curve"/>
      <point x="383" y="639" type="line"/>
      <point x="387" y="689" type="line"/>
      <point x="349" y="704"/>
      <point x="300" y="714"/>
      <point x="259" y="714" type="curve" smooth="yes"/>
      <point x="163" y="714"/>
      <point x="100" y="658"/>
      <point x="100" y="574" type="curve" smooth="yes"/>
      <point x="100" y="482"/>
      <point x="176" y="452"/>
      <point x="247" y="425" type="curve" smooth="yes"/>
      <point x="345" y="386"/>
      <point x="378" y="350"/>
      <point x="378" y="302" type="curve" smooth="yes"/>
      <point x="378" y="244"/>
      <point x="331" y="196"/>
      <point x="266" y="183" type="curve"/>
    </contour>
    <contour>
      <point x="98" y="-57" type="line"/>
      <point x="148" y="-74"/>
      <point x="208" y="-84"/>
      <point x="247" y="-84" type="curve" smooth="yes"/>
      <point x="341" y="-84"/>
      <point x="404" y="-27" name="hr01"/>
      <point x="404" y="59" type="curve" smooth="yes"/>
      <point x="404" y="127"/>
      <point x="365" y="170"/>
      <point x="255" y="215" type="curve" smooth="yes"/>
      <point x="157" y="255"/>
      <point x="126" y="288"/>
      <point x="126" y="338" type="curve" smooth="yes"/>
      <point x="126" y="395"/>
      <point x="166" y="440"/>
      <point x="239" y="461" type="curve"/>
      <point x="226" y="471" type="line"/>
      <point x="129" y="450"/>
      <point x="74" y="398"/>
      <point x="74" y="320" type="curve" smooth="yes"/>
      <point x="74" y="227"/>
      <point x="150" y="195"/>
      <point x="221" y="166" type="curve" smooth="yes"/>
      <point x="319" y="126"/>
      <point x="352" y="93"/>
      <point x="352" y="38" type="curve" smooth="yes"/>
      <point x="352" y="-23"/>
      <point x="309" y="-62"/>
      <point x="247" y="-62" type="curve" smooth="yes"/>
      <point x="201" y="-62"/>
      <point x="152" y="-42" name="hr02"/>
      <point x="109" y="-3" type="curve"/>
      <point x="103" y="-3" type="line"/>
    </contour>
  </outline>
</glyph>
<glyph name="copyright" format="2">
  <advance width="888"/>
  <unicode hex="00A9"/>
  <outline>
    <contour>
      <point x="80" y="350" type="curve" smooth="yes"/>
      <point x="80" y="139"/>
      <point x="233" y="-14"/>
      <point x="444" y="-14" type="curve" smooth="yes"/>
      <point x="655" y="-14"/>
      <point x="808" y="139"/>
      <point x="808" y="350" type="curve" smooth="yes"/>
      <point x="808" y="561"/>
      <point x="655" y="714"/>
      <point x="444" y="714" type="curve" smooth="yes"/>
      <point x="233" y="714"/>
      <point x="80" y="561"/>
    </contour>
    <contour>
      <point x="108" y="350" type="curve" smooth="yes"/>
      <point x="108" y="546.649"/>
      <point x="249.665" y="690"/>
      <point x="444" y="690" type="curve" smooth="yes"/>
      <point x="637.841" y="690"/>
      <point x="780" y="546.149"/>
      <point x="780" y="350" type="curve" smooth="yes"/>
      <point x="780" y="153.851"/>
      <point x="637.841" y="10"/>
      <point x="444" y="10" type="curve" smooth="yes"/>
      <point x="250.159" y="10"/>
      <point x="108" y="153.851"/>
    </contour>
    <contour>
      <point x="594" y="209" type="line"/>
      <point x="590" y="209" type="line"/>
      <point x="555" y="179"/>
      <point x="515" y="159"/>
      <point x="461" y="159" type="curve" smooth="yes"/>
      <point x="359" y="159" name="hr02"/>
      <point x="299" y="231"/>
      <point x="299" y="352" type="curve" smooth="yes"/>
      <point x="299" y="473.419"/>
      <point x="358.802" y="545"/>
      <point x="461" y="545" type="curve" smooth="yes"/>
      <point x="512" y="545"/>
      <point x="549" y="527"/>
      <point x="582" y="497" type="curve"/>
      <point x="586" y="497" type="line"/>
      <point x="589" y="537" type="line"/>
      <point x="547" y="554"/>
      <point x="500.692" y="563"/>
      <point x="461" y="563" type="curve" smooth="yes"/>
      <point x="336" y="563"/>
      <point x="241" y="472"/>
      <point x="241" y="352" type="curve" smooth="yes"/>
      <point x="241" y="232"/>
      <point x="336" y="141"/>
      <point x="461" y="141" type="curve" smooth="yes"/>
      <point x="504" y="141"/>
      <point x="561" y="152"/>
      <point x="590" y="166" type="curve"/>
    </contour>
  </outline>
</glyph>
<glyph name="ordfeminine" format="2">
  <advance width="400"/>
  <unicode hex="00AA"/>
  <outline>
    <contour>
      <point x="34" y="348" type="line"/>
      <point x="88" y="348" type="line"/>
      <point x="182" y="669" type="line"/>
      <point x="185" y="669" type="line"/>
      <point x="312" y="348" type="line"/>
      <point x="366" y="348" type="line"/>
      <point x="224" y="700" type="line"/>
      <point x="176" y="700" type="line"/>
    </contour>
    <contour>
      <point x="120" y="498" type="line"/>
      <point x="268" y="498" type="line"/>
      <point x="268" y="515" type="line"/>
      <point x="120" y="515" type="line"/>
    </contour>
  </outline>
</glyph>
<glyph name="logicalnot" format="2">
  <advance width="582"/>
  <unicode hex="00AC"/>
  <outline>
    <contour>
      <point x="59" y="313" type="line"/>
      <point x="523" y="313" type="line"/>
      <point x="523" y="343" type="line"/>
      <point x="59" y="343" type="line"/>
    </contour>
    <contour>
      <point x="523" y="112" type="line"/>
      <point x="523" y="326" type="line"/>
      <point x="491" y="326" type="line"/>
      <point x="491" y="112" type="line"/>
    </contour>
  </outline>
</glyph>
<glyph name="registered" format="2">
  <advance width="472"/>
  <unicode hex="00AE"/>
  <outline>
    <contour>
      <point x="50" y="524" type="curve" smooth="yes"/>
      <point x="50" y="414"/>
      <point x="126" y="338"/>
      <point x="236" y="338" type="curve" smooth="yes"/>
      <point x="346" y="338"/>
      <point x="422" y="414"/>
      <point x="422" y="524" type="curve" smooth="yes"/>
      <point x="422" y="634"/>
      <point x="346" y="710"/>
      <point x="236" y="710" type="curve" smooth="yes"/>
      <point x="126" y="710"/>
      <point x="50" y="634"/>
    </contour>
    <contour>
      <point x="76" y="524" type="curve" smooth="yes"/>
      <point x="76" y="622"/>
      <point x="142" y="690"/>
      <point x="236" y="690" type="curve" smooth="yes"/>
      <point x="330" y="690"/>
      <point x="396" y="622"/>
      <point x="396" y="524" type="curve" smooth="yes"/>
      <point x="396" y="426"/>
      <point x="330" y="358"/>
      <point x="236" y="358" type="curve" smooth="yes"/>
      <point x="142" y="358"/>
      <point x="76" y="426"/>
    </contour>
    <contour>
      <point x="171" y="628" type="line"/>
      <point x="171" y="424" type="line"/>
      <point x="203" y="424" type="line"/>
      <point x="203" y="618" type="line"/>
      <point x="222" y="618" type="line" smooth="yes"/>
      <point x="252" y="618" name="hr02"/>
      <point x="266" y="606"/>
      <point x="266" y="575" type="curve" smooth="yes"/>
      <point x="266" y="545"/>
      <point x="252" y="535"/>
      <point x="220" y="535" type="curve" smooth="yes"/>
      <point x="218" y="535" type="line"/>
      <point x="218" y="527" type="line"/>
      <point x="220" y="527" type="line" smooth="yes"/>
      <point x="245" y="527"/>
      <point x="253" y="515"/>
      <point x="265" y="477" type="curve" smooth="yes"/>
      <point x="273" y="452"/>
      <point x="285" y="424"/>
      <point x="325" y="424" type="curve" smooth="yes"/>
      <point x="334" y="424" type="line" name="hr03"/>
      <point x="334" y="426" type="line"/>
      <point x="319" y="430"/>
      <point x="311" y="442"/>
      <point x="300" y="474" type="curve" smooth="yes"/>
      <point x="287" y="511"/>
      <point x="277" y="523"/>
      <point x="256" y="529" type="curve"/>
      <point x="256" y="531" type="line"/>
      <point x="285" y="536"/>
      <point x="299" y="552"/>
      <point x="299" y="575" type="curve" smooth="yes"/>
      <point x="299" y="609"/>
      <point x="270" y="628"/>
      <point x="222" y="628" type="curve" smooth="yes"/>
    </contour>
  </outline>
</glyph>
<glyph name="degree" format="2">
  <advance width="352"/>
  <unicode hex="00B0"/>
  <outline>
    <contour>
      <point x="45" y="579" type="curve" smooth="yes"/>
      <point x="45" y="503"/>
      <point x="100" y="448"/>
      <point x="176" y="448" type="curve" smooth="yes"/>
      <point x="252" y="448"/>
      <point x="307" y="503"/>
      <point x="307" y="579" type="curve" smooth="yes"/>
      <point x="307" y="655"/>
      <point x="252" y="710"/>
      <point x="176" y="710" type="curve" smooth="yes"/>
      <point x="100" y="710"/>
      <point x="45" y="655"/>
    </contour>
    <contour>
      <point x="77" y="579" type="curve" smooth="yes"/>
      <point x="77" y="639"/>
      <point x="119" y="682"/>
      <point x="176" y="682" type="curve" smooth="yes"/>
      <point x="233" y="682"/>
      <point x="275" y="639"/>
      <point x="275" y="579" type="curve" smooth="yes"/>
      <point x="275" y="519"/>
      <point x="233" y="476"/>
      <point x="176" y="476" type="curve" smooth="yes"/>
      <point x="119" y="476"/>
      <point x="77" y="519"/>
    </contour>
  </outline>
</glyph>
<glyph name="twosuperior" format="2">
  <advance width="368"/>
  <unicode hex="00B2"/>
  <outline>
    <contour>
      <point x="42" y="362" type="line"/>
      <point x="311" y="362" type="line"/>
      <point x="311" y="408" type="line"/>
      <point x="91" y="408" type="line"/>
      <point x="221" y="550" type="line" smooth="yes"/>
      <point x="284.549" y="619.415"/>
      <point x="304" y="650"/>
      <point x="304" y="687" type="curve" smooth="yes"/>
      <point x="304" y="749"/>
      <point x="251" y="790"/>
      <point x="170" y="790" type="curve" smooth="yes"/>
      <point x="134" y="790"/>
      <point x="100" y="782"/>
      <point x="64" y="765" type="curve"/>
      <point x="67" y="726" type="line"/>
      <point x="71" y="726" type="line"/>
      <point x="104" y="755"/>
      <point x="139" y="770"/>
      <point x="170" y="770" type="curve" smooth="yes"/>
      <point x="216" y="770"/>
      <point x="246" y="736"/>
      <point x="246" y="682" type="curve" smooth="yes"/>
      <point x="246" y="646"/>
      <point x="231" y="616"/>
      <point x="193" y="568" type="curve" smooth="yes"/>
      <point x="42" y="378" type="line"/>
    </contour>
  </outline>
</glyph>
<glyph name="threesuperior" format="2">
  <advance width="363"/>
  <unicode hex="00B3"/>
  <outline>
    <contour>
      <point x="136" y="578" type="line" smooth="yes"/>
      <point x="205" y="578"/>
      <point x="247" y="539"/>
      <point x="247" y="473" type="curve" smooth="yes"/>
      <point x="247" y="411"/>
      <point x="211" y="372"/>
      <point x="156" y="372" type="curve" smooth="yes"/>
      <point x="120" y="372"/>
      <point x="82" y="387"/>
      <point x="52" y="416" type="curve"/>
      <point x="48" y="416" type="line"/>
      <point x="52" y="373" type="line"/>
      <point x="81" y="360"/>
      <point x="120" y="352"/>
      <point x="156" y="352" type="curve" smooth="yes"/>
      <point x="245" y="352"/>
      <point x="305" y="399"/>
      <point x="305" y="471" type="curve" smooth="yes"/>
      <point x="305" y="533"/>
      <point x="262" y="575"/>
      <point x="189" y="587" type="curve"/>
      <point x="189" y="591" type="line"/>
      <point x="251" y="605"/>
      <point x="285" y="640" name="hr01"/>
      <point x="285" y="688" type="curve" smooth="yes"/>
      <point x="285" y="749"/>
      <point x="233" y="790"/>
      <point x="156" y="790" type="curve" smooth="yes"/>
      <point x="122" y="790"/>
      <point x="82" y="782"/>
      <point x="55" y="770" type="curve"/>
      <point x="58" y="731" type="line"/>
      <point x="62" y="731" type="line"/>
      <point x="85" y="755"/>
      <point x="125" y="770"/>
      <point x="156" y="770" type="curve" smooth="yes"/>
      <point x="200" y="770"/>
      <point x="229" y="737"/>
      <point x="229" y="686" type="curve" smooth="yes"/>
      <point x="229" y="629"/>
      <point x="195" y="598"/>
      <point x="134" y="598" type="curve" smooth="yes"/>
      <point x="113" y="598" type="line"/>
      <point x="113" y="578" type="line"/>
    </contour>
  </outline>
</glyph>
<glyph name="paragraph" format="2">
  <advance width="629"/>
  <unicode hex="00B6"/>
  <outline>
    <contour>
      <point x="289" y="-94" type="line"/>
      <point x="339" y="-94" type="line"/>
      <point x="339" y="700" type="line"/>
      <point x="289" y="700" type="line"/>
    </contour>
    <contour>
      <point x="433" y="-94" type="line"/>
      <point x="483" y="-94" type="line"/>
      <point x="483" y="700" type="line"/>
      <point x="433" y="700" type="line"/>
    </contour>
    <contour>
      <point x="299" y="676" type="line"/>
      <point x="577" y="676" type="line"/>
      <point x="577" y="700" type="line"/>
      <point x="299" y="700" type="line"/>
    </contour>
    <contour>
      <point x="75" y="514" type="curve" smooth="yes"/>
      <point x="75" y="401"/>
      <point x="155" y="327"/>
      <point x="277" y="327" type="curve" smooth="yes"/>
      <point x="301" y="327" type="line"/>
      <point x="301" y="700" type="line"/>
      <point x="277" y="700" type="line" smooth="yes"/>
      <point x="156" y="700"/>
      <point x="75" y="626"/>
    </contour>
  </outline>
</glyph>
<glyph name="onesuperior" format="2">
  <advance width="293"/>
  <unicode hex="00B9"/>
  <outline>
    <contour>
      <point x="139" y="362" type="line"/>
      <point x="191" y="362" type="line"/>
      <point x="191" y="790" type="line"/>
      <point x="175" y="790" type="line"/>
      <point x="37" y="710" type="line"/>
      <point x="43" y="697" type="line"/>
      <point x="139" y="739" type="line"/>
    </contour>
  </outline>
</glyph>
<glyph name="ordmasculine" format="2">
  <advance width="472"/>
  <unicode hex="00BA"/>
  <outline>
    <contour>
      <point x="50" y="524" type="curve" smooth="yes"/>
      <point x="50" y="418"/>
      <point x="130" y="338"/>
      <point x="236" y="338" type="curve" smooth="yes"/>
      <point x="342" y="338"/>
      <point x="422" y="418"/>
      <point x="422" y="524" type="curve" smooth="yes"/>
      <point x="422" y="630"/>
      <point x="342" y="710"/>
      <point x="236" y="710" type="curve" smooth="yes"/>
      <point x="130" y="710"/>
      <point x="50" y="630"/>
    </contour>
    <contour>
      <point x="106" y="524" type="curve" smooth="yes"/>
      <point x="106" y="625.519"/>
      <point x="157.707" y="693"/>
      <point x="236" y="693" type="curve" smooth="yes"/>
      <point x="313.864" y="693"/>
      <point x="366" y="626"/>
      <point x="366" y="524" type="curve" smooth="yes"/>
      <point x="366" y="422"/>
      <point x="313.864" y="355"/>
      <point x="236" y="355" type="curve" smooth="yes"/>
      <point x="158.136" y="355"/>
      <point x="106" y="422"/>
    </contour>
  </outline>
</glyph>
<glyph name="AE" format="2">
  <advance width="815"/>
  <unicode hex="00C6"/>
  <unicode hex="00E6"/>
  <anchor x="408" y="0" name="bottom"/>
  <anchor x="519" y="700" name="top"/>
  <outline>
    <contour>
      <point x="10" y="0" type="line"/>
      <point x="86" y="0" type="line"/>
      <point x="421" y="646" type="line"/>
      <point x="428" y="646" type="line"/>
      <point x="479" y="700" type="line"/>
      <point x="424" y="700" type="line"/>
    </contour>
    <contour>
      <point x="211" y="298" type="line"/>
      <point x="459" y="298" type="line"/>
      <point x="459" y="322" type="line"/>
      <point x="211" y="322" type="line"/>
    </contour>
    <contour>
      <point x="485" y="355" type="line"/>
      <point x="495" y="355" type="line" smooth="yes"/>
      <point x="503.532" y="355"/>
      <point x="524.198" y="354"/>
      <point x="557" y="352" type="curve" smooth="yes"/>
      <point x="721" y="342" type="line"/>
      <point x="721" y="388" type="line"/>
      <point x="557" y="378" type="line" smooth="yes"/>
      <point x="524.198" y="376"/>
      <point x="503.532" y="375"/>
      <point x="495" y="375" type="curve" smooth="yes"/>
      <point x="485" y="375" type="line"/>
    </contour>
    <contour>
      <point x="427" y="0" type="line"/>
      <point x="495" y="0" type="line"/>
      <point x="495" y="700" type="line"/>
      <point x="427" y="700" type="line"/>
    </contour>
    <contour>
      <point x="485" y="700" type="line"/>
      <point x="485" y="680" type="line"/>
      <point x="494.914" y="680" type="line" smooth="yes"/>
      <point x="505.905" y="680"/>
      <point x="526.6" y="678"/>
      <point x="557" y="674" type="curve" smooth="yes"/>
      <point x="732" y="651" type="line"/>
      <point x="732" y="700" type="line"/>
    </contour>
    <contour>
      <point x="485" y="0" type="line"/>
      <point x="735" y="0" type="line"/>
      <point x="735" y="49" type="line"/>
      <point x="558" y="26" type="line" smooth="yes"/>
      <point x="528" y="22"/>
      <point x="506.6" y="20"/>
      <point x="495" y="20" type="curve" smooth="yes"/>
      <point x="485" y="20" type="line"/>
    </contour>
  </outline>
</glyph>
<glyph name="Eth" format="2">
  <advance width="814"/>
  <unicode hex="00D0"/>
  <unicode hex="00F0"/>
  <anchor x="407" y="0" name="bottom"/>
  <anchor x="407" y="350" name="center"/>
  <anchor x="366" y="700" name="top"/>
  <outline>
    <contour>
      <point x="38" y="352" type="line"/>
      <point x="372" y="352" type="line"/>
      <point x="372" y="376" type="line"/>
      <point x="38" y="376" type="line"/>
    </contour>
    <component base="D"/>
  </outline>
</glyph>
<glyph name="multiply" format="2">
  <advance width="582"/>
  <unicode hex="00D7"/>
  <outline>
    <contour>
      <point x="116" y="128" type="line"/>
      <point x="487" y="499" type="line"/>
      <point x="466" y="520" type="line"/>
      <point x="95" y="149" type="line"/>
    </contour>
    <contour>
      <point x="487" y="149" type="line"/>
      <point x="116" y="520" type="line"/>
      <point x="95" y="499" type="line"/>
      <point x="466" y="128" type="line"/>
    </contour>
  </outline>
</glyph>
<glyph name="Oslash" format="2">
  <advance width="888"/>
  <unicode hex="00D8"/>
  <unicode hex="00F8"/>
  <anchor x="444" y="0" name="bottom"/>
  <anchor x="444" y="350" name="center"/>
  <anchor x="482" y="0" name="ogonek"/>
  <anchor x="444" y="700" name="top"/>
  <anchor x="20" y="700" name="topleft"/>
  <anchor x="868" y="700" name="topright"/>
  <outline>
    <contour>
      <point x="191" y="-63" type="line"/>
      <point x="213" y="-75" type="line"/>
      <point x="691" y="754" type="line"/>
      <point x="669" y="766" type="line"/>
    </contour>
    <component base="O"/>
  </outline>
</glyph>
<glyph name="Thorn" format="2">
  <advance width="570"/>
  <unicode hex="00DE"/>
  <unicode hex="00FE"/>
  <anchor x="285" y="0" name="bottom"/>
  <anchor x="285" y="700" name="top"/>
  <outline>
    <contour>
      <point x="161" y="164" type="line"/>
      <point x="255" y="164" type="line" smooth="yes"/>
      <point x="416" y="164"/>
      <point x="510" y="236"/>
      <point x="510" y="359" type="curve" smooth="yes"/>
      <point x="510" y="482"/>
      <point x="416" y="554"/>
      <point x="255" y="554" type="curve" smooth="yes"/>
      <point x="161" y="554" type="line"/>
      <point x="161" y="530" type="line"/>
      <point x="255" y="530" type="line" smooth="yes"/>
      <point x="376" y="530"/>
      <point x="438" y="473"/>
      <point x="438" y="359" type="curve" smooth="yes"/>
      <point x="438" y="245"/>
      <point x="376" y="188"/>
      <point x="255" y="188" type="curve" smooth="yes"/>
      <point x="161" y="188" type="line"/>
    </contour>
    <contour>
      <point x="130" y="0" type="line"/>
      <point x="198" y="0" type="line"/>
      <point x="198" y="700" type="line"/>
      <point x="130" y="700" type="line"/>
    </contour>
  </outline>
</glyph>
<glyph name="divide" format="2">
  <advance width="582"/>
  <unicode hex="00F7"/>
  <outline>
    <contour>
      <point x="248" y="168" type="curve" smooth="yes"/>
      <point x="248" y="143"/>
      <point x="266" y="125"/>
      <point x="291" y="125" type="curve" smooth="yes"/>
      <point x="316" y="125"/>
      <point x="334" y="143"/>
      <point x="334" y="168" type="curve" smooth="yes"/>
      <point x="334" y="193"/>
      <point x="316" y="211"/>
      <point x="291" y="211" type="curve" smooth="yes"/>
      <point x="266" y="211"/>
      <point x="248" y="193"/>
    </contour>
    <contour>
      <point x="248" y="488" type="curve" smooth="yes"/>
      <point x="248" y="463"/>
      <point x="266" y="445"/>
      <point x="291" y="445" type="curve" smooth="yes"/>
      <point x="316" y="445"/>
      <point x="334" y="463"/>
      <point x="334" y="488" type="curve" smooth="yes"/>
      <point x="334" y="513"/>
      <point x="316" y="531"/>
      <point x="291" y="531" type="curve" smooth="yes"/>
      <point x="266" y="531"/>
      <point x="248" y="513"/>
    </contour>
    <component base="minus"/>
  </outline>
</glyph>
<glyph name="Hbar" format="2">
  <advance width="816"/>
  <unicode hex="0126"/>
  <unicode hex="0127"/>
  <anchor x="408" y="0" name="bottom"/>
  <anchor x="408" y="350" name="center"/>
  <anchor x="408" y="700" name="top"/>
  <anchor x="20" y="700" name="topleft"/>
  <outline>
    <contour>
      <point x="38" y="552" type="line"/>
      <point x="778" y="552" type="line"/>
      <point x="778" y="576" type="line"/>
      <point x="38" y="576" type="line"/>
    </contour>
    <component base="H"/>
  </outline>
</glyph>
<glyph name="Lslash" format="2">
  <advance width="461"/>
  <unicode hex="0141"/>
  <unicode hex="0142"/>
  <anchor x="280" y="0" name="bottom"/>
  <anchor x="231" y="350" name="center"/>
  <anchor x="166" y="700" name="top"/>
  <anchor x="441" y="700" name="topright"/>
  <outline>
    <contour>
      <point x="46" y="309" type="line"/>
      <point x="162" y="351" type="line"/>
      <point x="154" y="374" type="line"/>
      <point x="38" y="332" type="line"/>
    </contour>
    <contour>
      <point x="189" y="356" type="line"/>
      <point x="347" y="413" type="line"/>
      <point x="339" y="436" type="line"/>
      <point x="181" y="379" type="line"/>
    </contour>
    <component base="L"/>
  </outline>
</glyph>
<glyph name="OE" format="2">
  <advance width="933"/>
  <unicode hex="0152"/>
  <unicode hex="0153"/>
  <anchor x="467" y="0" name="bottom"/>
  <anchor x="805" y="0" name="ogonek"/>
  <anchor x="467" y="700" name="top"/>
  <anchor x="435" y="700" name="topleft"/>
  <outline>
    <contour>
      <point x="80" y="350" type="curve" smooth="yes"/>
      <point x="80" y="142.634"/>
      <point x="236.45" y="-10" name="hr01"/>
      <point x="449" y="-10" type="curve" smooth="yes"/>
      <point x="495" y="-10"/>
      <point x="546" y="-2.708"/>
      <point x="593" y="11" type="curve"/>
      <point x="589" y="30" type="line"/>
      <point x="542.226" y="18.774"/>
      <point x="492.667" y="12"/>
      <point x="452" y="12" type="curve" smooth="yes"/>
      <point x="271.535" y="12"/>
      <point x="156" y="143.634"/>
      <point x="156" y="350" type="curve" smooth="yes"/>
      <point x="156" y="555.557"/>
      <point x="272.115" y="688" name="hr02"/>
      <point x="452" y="688" type="curve" smooth="yes"/>
      <point x="492.667" y="688"/>
      <point x="542.226" y="681.226"/>
      <point x="589" y="670" type="curve"/>
      <point x="593" y="689" type="line"/>
      <point x="546" y="702.708"/>
      <point x="495" y="710"/>
      <point x="449" y="710" type="curve" smooth="yes"/>
      <point x="236.45" y="710"/>
      <point x="80" y="557.366"/>
    </contour>
    <component base="E" xOffset="415"/>
  </outline>
</glyph>
<glyph name="Tbar" format="2">
  <advance width="648"/>
  <unicode hex="0166"/>
  <unicode hex="0167"/>
  <anchor x="324" y="0" name="bottom"/>
  <anchor x="324" y="350" name="center"/>
  <anchor x="324" y="700" name="top"/>
  <outline>
    <contour>
      <point x="157" y="352" type="line"/>
      <point x="491" y="352" type="line"/>
      <point x="491" y="376" type="line"/>
      <point x="157" y="376" type="line"/>
    </contour>
    <component base="T"/>
  </outline>
</glyph>
<glyph name="florin" format="2">
  <advance width="415"/>
  <unicode hex="0192"/>
  <outline>
    <contour>
      <point x="105.624" y="82.552" type="line" smooth="yes"/>
      <point x="85.416" y="-80.929"/>
      <point x="37.05" y="-184.609"/>
      <point x="-52.95" y="-220.95" type="curve"/>
      <point x="-50.7" y="-226.95" type="line"/>
      <point x="76.902" y="-208.129"/>
      <point x="146.224" y="-108.392"/>
      <point x="170.324" y="89.552" type="curve" smooth="yes"/>
      <point x="229.05" y="571.9" type="line" smooth="yes"/>
      <point x="238.67" y="650.91"/>
      <point x="272.25" y="689.9"/>
      <point x="321.329" y="689.9" type="curve" smooth="yes"/>
      <point x="345.767" y="689.9"/>
      <point x="366.45" y="681.9"/>
      <point x="391.15" y="638.9" type="curve"/>
      <point x="397.15" y="638.9" type="line"/>
      <point x="408.8" y="691.9" type="line"/>
      <point x="376.714" y="708.999"/>
      <point x="349.259" y="713.9"/>
      <point x="320.69" y="713.9" type="curve" smooth="yes"/>
      <point x="230.977" y="713.9"/>
      <point x="176.648" y="657.149"/>
      <point x="162.65" y="543.9" type="curve" smooth="yes"/>
    </contour>
    <contour>
      <point x="56.893" y="407.561" type="line"/>
      <point x="338.893" y="407.561" type="line"/>
      <point x="341.84" y="431.561" type="line"/>
      <point x="59.84" y="431.561" type="line"/>
    </contour>
  </outline>
</glyph>
<glyph name="Nhookleft" format="2">
  <advance width="780"/>
  <unicode hex="019D"/>
  <unicode hex="0272"/>
  <anchor x="390" y="0" name="bottom"/>
  <anchor x="390" y="700" name="top"/>
  <outline>
    <contour>
      <point x="117.3" y="64.8" type="line" smooth="yes"/>
      <point x="111.101" y="-112.473"/>
      <point x="101.08" y="-175.832"/>
      <point x="38" y="-221" type="curve"/>
      <point x="40" y="-227" type="line"/>
      <point x="148.83" y="-192.55"/>
      <point x="186.744" y="-72.885"/>
      <point x="181.462" y="63.949" type="curve" smooth="yes"/>
      <point x="161" y="594" type="line"/>
      <point x="167" y="594" type="line"/>
      <point x="670" y="-14" type="line"/>
      <point x="682" y="-14" type="line"/>
      <point x="707" y="700" type="line"/>
      <point x="639" y="700" type="line"/>
      <point x="661" y="106" type="line"/>
      <point x="655" y="106" type="line"/>
      <point x="152" y="714" type="line"/>
      <point x="140" y="714" type="line"/>
    </contour>
  </outline>
</glyph>
<glyph name="gravecomb" format="2">
  <advance height="1160"/>
  <unicode hex="0300"/>
  <anchor x="148" y="700" name="_top"/>
  <anchor x="115" y="887" name="top"/>
  <outline>
    <contour>
      <point x="205" y="775" type="line"/>
      <point x="108" y="897" type="line"/>
      <point x="18" y="897" type="line"/>
      <point x="18" y="891" type="line"/>
      <point x="192" y="763" type="line"/>
    </contour>
  </outline>
</glyph>
<glyph name="acutecomb" format="2">
  <unicode hex="0301"/>
  <anchor x="91" y="700" name="_top"/>
  <anchor x="124" y="897" name="top"/>
  <outline>
    <contour>
      <point x="30" y="775" type="line"/>
      <point x="43" y="763" type="line"/>
      <point x="217" y="891" type="line"/>
      <point x="217" y="897" type="line"/>
      <point x="127" y="897" type="line"/>
    </contour>
  </outline>
</glyph>
<glyph name="circumflexcomb" format="2">
  <advance height="1160"/>
  <unicode hex="0302"/>
  <anchor x="204" y="700" name="_top"/>
  <anchor x="204" y="905" name="top"/>
  <outline>
    <contour>
      <point x="217" y="905" type="line"/>
      <point x="191" y="905" type="line"/>
      <point x="70" y="775" type="line"/>
      <point x="83" y="763" type="line"/>
      <point x="204" y="843" type="line"/>
      <point x="325" y="763" type="line"/>
      <point x="338" y="775" type="line"/>
    </contour>
  </outline>
</glyph>
<glyph name="tildecomb" format="2">
  <unicode hex="0303"/>
  <anchor x="203" y="700" name="_top"/>
  <anchor x="202" y="900" name="top"/>
  <outline>
    <contour>
      <point x="212" y="873" type="curve" smooth="yes"/>
      <point x="190" y="887"/>
      <point x="168" y="900"/>
      <point x="140" y="900" type="curve" smooth="yes"/>
      <point x="103" y="900"/>
      <point x="77" y="877"/>
      <point x="42" y="808" type="curve"/>
      <point x="57" y="798" type="line"/>
      <point x="85" y="836"/>
      <point x="105" y="846"/>
      <point x="126" y="846" type="curve" smooth="yes"/>
      <point x="150" y="846"/>
      <point x="172" y="832"/>
      <point x="192" y="819" type="curve" smooth="yes"/>
      <point x="214" y="805"/>
      <point x="236" y="792" name="hr01"/>
      <point x="264" y="792" type="curve" smooth="yes"/>
      <point x="301" y="792"/>
      <point x="327" y="815"/>
      <point x="362" y="884" type="curve"/>
      <point x="347" y="894" type="line"/>
      <point x="319" y="856"/>
      <point x="299" y="846"/>
      <point x="278" y="846" type="curve" smooth="yes"/>
      <point x="254" y="846"/>
      <point x="232" y="860"/>
    </contour>
  </outline>
</glyph>
<glyph name="macroncomb" format="2">
  <unicode hex="0304"/>
  <anchor x="184" y="700" name="_top"/>
  <anchor x="184" y="859" name="top"/>
  <outline>
    <contour>
      <point x="50" y="819" type="line"/>
      <point x="318" y="819" type="line"/>
      <point x="318" y="859" type="line"/>
      <point x="50" y="859" type="line"/>
    </contour>
  </outline>
</glyph>
<glyph name="brevecomb" format="2">
  <unicode hex="0306"/>
  <anchor x="199" y="700" name="_top"/>
  <anchor x="199" y="912" name="top"/>
  <outline>
    <contour>
      <point x="199" y="777" type="curve" smooth="yes"/>
      <point x="263" y="777"/>
      <point x="310" y="824"/>
      <point x="328" y="906" type="curve"/>
      <point x="311" y="912" type="line"/>
      <point x="278" y="855"/>
      <point x="249" y="835"/>
      <point x="199" y="835" type="curve" smooth="yes"/>
      <point x="149" y="835"/>
      <point x="120" y="855"/>
      <point x="87" y="912" type="curve"/>
      <point x="70" y="906" type="line"/>
      <point x="88" y="824"/>
      <point x="135" y="777"/>
    </contour>
  </outline>
</glyph>
<glyph name="dotaccentcomb" format="2">
  <unicode hex="0307"/>
  <anchor x="118" y="700" name="_top"/>
  <anchor x="118" y="893" name="top"/>
  <outline>
    <contour>
      <point x="70" y="845" type="curve" smooth="yes"/>
      <point x="70" y="817"/>
      <point x="90" y="797"/>
      <point x="118" y="797" type="curve" smooth="yes"/>
      <point x="146" y="797"/>
      <point x="166" y="817"/>
      <point x="166" y="845" type="curve" smooth="yes"/>
      <point x="166" y="873"/>
      <point x="146" y="893"/>
      <point x="118" y="893" type="curve" smooth="yes"/>
      <point x="90" y="893"/>
      <point x="70" y="873"/>
    </contour>
  </outline>
</glyph>
<glyph name="dieresiscomb" format="2">
  <unicode hex="0308"/>
  <anchor x="218" y="700" name="_top"/>
  <anchor x="218" y="890" name="top"/>
  <outline>
    <contour>
      <point x="276" y="845" type="curve" smooth="yes"/>
      <point x="276" y="819"/>
      <point x="295" y="800"/>
      <point x="321" y="800" type="curve" smooth="yes"/>
      <point x="347" y="800"/>
      <point x="366" y="819"/>
      <point x="366" y="845" type="curve" smooth="yes"/>
      <point x="366" y="871"/>
      <point x="347" y="890"/>
      <point x="321" y="890" type="curve" smooth="yes"/>
      <point x="295" y="890"/>
      <point x="276" y="871"/>
    </contour>
    <contour>
      <point x="70" y="845" type="curve" smooth="yes"/>
      <point x="70" y="819"/>
      <point x="89" y="800"/>
      <point x="115" y="800" type="curve" smooth="yes"/>
      <point x="141" y="800"/>
      <point x="160" y="819"/>
      <point x="160" y="845" type="curve" smooth="yes"/>
      <point x="160" y="871"/>
      <point x="141" y="890"/>
      <point x="115" y="890" type="curve" smooth="yes"/>
      <point x="89" y="890"/>
      <point x="70" y="871"/>
    </contour>
  </outline>
</glyph>
<glyph name="ringcomb" format="2">
  <unicode hex="030A"/>
  <anchor x="154" y="700" name="_top"/>
  <anchor x="154" y="924" name="top"/>
  <outline>
    <contour>
      <point x="60" y="836" type="curve" smooth="yes"/>
      <point x="60" y="785"/>
      <point x="99" y="748"/>
      <point x="154" y="748" type="curve" smooth="yes"/>
      <point x="209" y="748"/>
      <point x="248" y="785"/>
      <point x="248" y="836" type="curve" smooth="yes"/>
      <point x="248" y="887"/>
      <point x="209" y="924"/>
      <point x="154" y="924" type="curve" smooth="yes"/>
      <point x="99" y="924"/>
      <point x="60" y="887"/>
    </contour>
    <contour>
      <point x="154" y="906" type="curve" smooth="yes"/>
      <point x="181" y="906"/>
      <point x="202" y="877"/>
      <point x="202" y="836" type="curve" smooth="yes"/>
      <point x="202" y="795"/>
      <point x="181" y="766"/>
      <point x="154" y="766" type="curve" smooth="yes"/>
      <point x="126" y="766"/>
      <point x="106" y="795"/>
      <point x="106" y="836" type="curve" smooth="yes"/>
      <point x="106" y="877"/>
      <point x="126" y="906"/>
    </contour>
  </outline>
</glyph>
<glyph name="hungarumlautcomb" format="2">
  <unicode hex="030B"/>
  <anchor x="149" y="690" name="_top"/>
  <anchor x="194" y="889" name="top"/>
  <outline>
    <contour>
      <point x="30" y="765" type="line"/>
      <point x="43" y="753" type="line"/>
      <point x="197" y="883" type="line"/>
      <point x="197" y="889" type="line"/>
      <point x="116" y="889" type="line"/>
    </contour>
    <contour>
      <point x="190" y="765" type="line"/>
      <point x="203" y="753" type="line"/>
      <point x="357" y="883" type="line"/>
      <point x="357" y="889" type="line"/>
      <point x="276" y="889" type="line"/>
    </contour>
  </outline>
</glyph>
<glyph name="caroncomb" format="2">
  <unicode hex="030C"/>
  <anchor x="204" y="700" name="_top"/>
  <anchor x="204" y="918" name="top"/>
  <outline>
    <contour>
      <point x="191" y="776" type="line"/>
      <point x="217" y="776" type="line"/>
      <point x="338" y="906" type="line"/>
      <point x="325" y="918" type="line"/>
      <point x="204" y="838" type="line"/>
      <point x="83" y="918" type="line"/>
      <point x="70" y="906" type="line"/>
    </contour>
  </outline>
</glyph>
<glyph name="commaaccentcomb" format="2">
  <unicode hex="0326"/>
  <anchor x="120" y="0" name="_bottom"/>
  <anchor x="120" y="-256" name="bottom"/>
  <outline>
    <contour>
      <point x="70.524" y="-100.19" type="curve" smooth="yes"/>
      <point x="70.524" y="-73.374"/>
      <point x="90.868" y="-53.955"/>
      <point x="118.609" y="-53.955" type="curve" smooth="yes"/>
      <point x="150.048" y="-53.955"/>
      <point x="167.618" y="-78.922"/>
      <point x="167.618" y="-124.232" type="curve" smooth="yes"/>
      <point x="167.618" y="-174.166"/>
      <point x="146.35" y="-213.003"/>
      <point x="88.094" y="-255.54" type="curve"/>
      <point x="76.997" y="-241.669" type="line"/>
      <point x="126.006" y="-201.907"/>
      <point x="138.027" y="-174.166" name="hr01"/>
      <point x="138.027" y="-130.705" type="curve"/>
      <point x="131.554" y="-139.027"/>
      <point x="123.232" y="-142.726"/>
      <point x="112.136" y="-142.726" type="curve" smooth="yes"/>
      <point x="87.169" y="-142.726"/>
      <point x="70.524" y="-124.232" name="hr02"/>
    </contour>
  </outline>
</glyph>
<glyph name="cedillacomb" format="2">
  <unicode hex="0327"/>
  <anchor x="136" y="0" name="_bottom"/>
  <anchor x="136" y="-220" name="bottom"/>
  <outline>
    <contour>
      <point x="95" y="-76" type="line"/>
      <point x="138" y="-84"/>
      <point x="161" y="-107"/>
      <point x="161" y="-142" type="curve" smooth="yes"/>
      <point x="161" y="-175"/>
      <point x="140" y="-196"/>
      <point x="105" y="-196" type="curve" smooth="yes"/>
      <point x="92" y="-196"/>
      <point x="74" y="-193"/>
      <point x="56" y="-187" type="curve"/>
      <point x="51" y="-204" type="line"/>
      <point x="88" y="-216"/>
      <point x="105" y="-220"/>
      <point x="125" y="-220" type="curve" smooth="yes"/>
      <point x="184" y="-220"/>
      <point x="221" y="-187"/>
      <point x="221" y="-136" type="curve" smooth="yes"/>
      <point x="221" y="-90"/>
      <point x="190" y="-64"/>
      <point x="127" y="-52" type="curve"/>
      <point x="149" y="4" type="line"/>
      <point x="127" y="4" type="line"/>
    </contour>
  </outline>
</glyph>
<glyph name="ogonekcomb" format="2">
  <unicode hex="0328"/>
  <anchor x="185" y="0" name="_ogonek"/>
  <outline>
    <contour>
      <point x="233" y="-178" type="curve"/>
      <point x="222" y="-164" type="line"/>
      <point x="208" y="-174"/>
      <point x="191" y="-180"/>
      <point x="177" y="-180" type="curve" smooth="yes"/>
      <point x="148" y="-180"/>
      <point x="130" y="-156"/>
      <point x="130" y="-118" type="curve" smooth="yes"/>
      <point x="130" y="-81"/>
      <point x="147" y="-44"/>
      <point x="185" y="0" type="curve"/>
      <point x="183" y="10" type="line"/>
      <point x="174" y="10" type="line"/>
      <point x="101" y="-42"/>
      <point x="70" y="-85"/>
      <point x="70" y="-135" type="curve" smooth="yes"/>
      <point x="70" y="-186"/>
      <point x="102" y="-220"/>
      <point x="151" y="-220" type="curve" smooth="yes"/>
      <point x="182" y="-220"/>
      <point x="207" y="-207"/>
    </contour>
  </outline>
</glyph>
<glyph name="Delta" format="2">
  <advance width="659"/>
  <unicode hex="0394"/>
  <unicode hex="2206"/>
  <unicode hex="03B4"/>
  <outline>
    <contour>
      <point x="26" y="0" type="line"/>
      <point x="99" y="0" type="line"/>
      <point x="301" y="646" type="line"/>
      <point x="307" y="646" type="line"/>
      <point x="554" y="0" type="line"/>
      <point x="627" y="0" type="line"/>
      <point x="358" y="700" type="line"/>
      <point x="295" y="700" type="line"/>
    </contour>
    <contour>
      <point x="61" y="0" type="line"/>
      <point x="571" y="0" type="line"/>
      <point x="571" y="28" type="line"/>
      <point x="61" y="28" type="line"/>
    </contour>
  </outline>
</glyph>
<glyph name="mu" format="2">
  <advance width="629"/>
  <unicode hex="03BC"/>
  <unicode hex="00B5"/>
  <outline>
    <contour>
      <point x="105" y="174" type="line" smooth="yes"/>
      <point x="105" y="53"/>
      <point x="164" y="-14"/>
      <point x="271" y="-14" type="curve" smooth="yes"/>
      <point x="347" y="-14"/>
      <point x="402" y="20"/>
      <point x="469" y="108" type="curve"/>
      <point x="461" y="137" type="line"/>
      <point x="412" y="60"/>
      <point x="362" y="26" name="hr01"/>
      <point x="298" y="26" type="curve" smooth="yes"/>
      <point x="215" y="26"/>
      <point x="167" y="83"/>
      <point x="167" y="180" type="curve" smooth="yes"/>
      <point x="167" y="492" type="line"/>
      <point x="105" y="492" type="line"/>
    </contour>
    <contour>
      <point x="446" y="91" type="line" smooth="yes"/>
      <point x="446" y="23"/>
      <point x="475" y="-14"/>
      <point x="528" y="-14" type="curve" smooth="yes"/>
      <point x="567" y="-14"/>
      <point x="588" y="5"/>
      <point x="607" y="56" type="curve"/>
      <point x="590" y="63" type="line"/>
      <point x="579" y="35"/>
      <point x="565" y="22" name="hr02"/>
      <point x="544" y="22" type="curve" smooth="yes"/>
      <point x="519" y="22"/>
      <point x="508" y="42"/>
      <point x="508" y="87" type="curve" smooth="yes"/>
      <point x="508" y="492" type="line"/>
      <point x="446" y="492" type="line"/>
    </contour>
    <contour>
      <point x="105" y="-220" type="line"/>
      <point x="181" y="-220" type="line"/>
      <point x="129" y="26" type="line" name="hr03"/>
      <point x="129" y="102" type="line"/>
      <point x="105" y="174" type="line"/>
    </contour>
  </outline>
</glyph>
<glyph name="endash" format="2">
  <advance width="580"/>
  <unicode hex="2013"/>
  <outline>
    <contour>
      <point x="40" y="342" type="line"/>
      <point x="540" y="342" type="line"/>
      <point x="540" y="372" type="line"/>
      <point x="40" y="372" type="line"/>
    </contour>
  </outline>
</glyph>
<glyph name="emdash" format="2">
  <advance width="1080"/>
  <unicode hex="2014"/>
  <outline>
    <contour>
      <point x="40" y="342" type="line"/>
      <point x="1040" y="342" type="line"/>
      <point x="1040" y="372" type="line"/>
      <point x="40" y="372" type="line"/>
    </contour>
  </outline>
</glyph>
<glyph name="dagger" format="2">
  <advance width="472"/>
  <unicode hex="2020"/>
  <outline>
    <contour>
      <point x="227" y="-47" type="line"/>
      <point x="245" y="-47" type="line"/>
      <point x="270" y="409" type="line"/>
      <point x="244" y="526" type="line"/>
      <point x="228" y="526" type="line"/>
      <point x="202" y="409" type="line"/>
    </contour>
    <contour>
      <point x="202" y="730" type="line"/>
      <point x="227" y="526" type="line"/>
      <point x="245" y="526" type="line"/>
      <point x="270" y="730" type="line"/>
    </contour>
    <contour>
      <point x="239" y="518" type="line"/>
      <point x="427" y="493" type="line"/>
      <point x="427" y="561" type="line"/>
      <point x="239" y="536" type="line"/>
    </contour>
    <contour>
      <point x="45" y="493" type="line"/>
      <point x="233" y="518" type="line"/>
      <point x="233" y="536" type="line"/>
      <point x="45" y="561" type="line"/>
    </contour>
  </outline>
</glyph>
<glyph name="daggerdbl" format="2">
  <advance width="472"/>
  <unicode hex="2021"/>
  <outline>
    <contour>
      <point x="270" y="347" type="line"/>
      <point x="245" y="526" type="line"/>
      <point x="227" y="526" type="line"/>
      <point x="202" y="347" type="line"/>
      <point x="227" y="168" type="line"/>
      <point x="245" y="168" type="line"/>
    </contour>
    <contour>
      <point x="202" y="730" type="line"/>
      <point x="227" y="526" type="line"/>
      <point x="245" y="526" type="line"/>
      <point x="270" y="730" type="line"/>
    </contour>
    <contour>
      <point x="239" y="518" type="line"/>
      <point x="427" y="493" type="line"/>
      <point x="427" y="561" type="line"/>
      <point x="239" y="536" type="line"/>
    </contour>
    <contour>
      <point x="45" y="493" type="line"/>
      <point x="233" y="518" type="line"/>
      <point x="233" y="536" type="line"/>
      <point x="45" y="561" type="line"/>
    </contour>
    <contour>
      <point x="202" y="-36" type="line"/>
      <point x="270" y="-36" type="line"/>
      <point x="245" y="168" type="line"/>
      <point x="227" y="168" type="line"/>
    </contour>
    <contour>
      <point x="239" y="176" type="line"/>
      <point x="239" y="158" type="line"/>
      <point x="427" y="108" type="line"/>
      <point x="427" y="176" type="line"/>
    </contour>
    <contour>
      <point x="45" y="176" type="line"/>
      <point x="45" y="108" type="line"/>
      <point x="233" y="158" type="line"/>
      <point x="233" y="176" type="line"/>
    </contour>
  </outline>
</glyph>
<glyph name="bullet" format="2">
  <advance width="412"/>
  <unicode hex="2022"/>
  <outline>
    <contour>
      <point x="90" y="363" type="curve" smooth="yes"/>
      <point x="90" y="295"/>
      <point x="138" y="247"/>
      <point x="206" y="247" type="curve" smooth="yes"/>
      <point x="274" y="247"/>
      <point x="322" y="295"/>
      <point x="322" y="363" type="curve" smooth="yes"/>
      <point x="322" y="431"/>
      <point x="274" y="479"/>
      <point x="206" y="479" type="curve" smooth="yes"/>
      <point x="138" y="479"/>
      <point x="90" y="431"/>
    </contour>
  </outline>
</glyph>
<glyph name="perthousand" format="2">
  <advance width="1133"/>
  <unicode hex="2030"/>
  <outline>
    <contour>
      <point x="173" y="0" type="line"/>
      <point x="205" y="0" type="line"/>
      <point x="597" y="700" type="line"/>
      <point x="565" y="700" type="line"/>
    </contour>
    <contour>
      <point x="44" y="527" type="curve" smooth="yes"/>
      <point x="44" y="418"/>
      <point x="103" y="345"/>
      <point x="190" y="345" type="curve" smooth="yes"/>
      <point x="277" y="345"/>
      <point x="336" y="418"/>
      <point x="336" y="527" type="curve" smooth="yes"/>
      <point x="336" y="636"/>
      <point x="277" y="709" name="hr01"/>
      <point x="190" y="709" type="curve" smooth="yes"/>
      <point x="103" y="709"/>
      <point x="44" y="636"/>
    </contour>
    <contour>
      <point x="102" y="527" type="curve" smooth="yes"/>
      <point x="102" y="630.185"/>
      <point x="135" y="689"/>
      <point x="190" y="689" type="curve" smooth="yes"/>
      <point x="245" y="689"/>
      <point x="278" y="630.185"/>
      <point x="278" y="527" type="curve" smooth="yes"/>
      <point x="278" y="423.815"/>
      <point x="245" y="365"/>
      <point x="190" y="365" type="curve" smooth="yes"/>
      <point x="135" y="365"/>
      <point x="102" y="423.815"/>
    </contour>
    <contour>
      <point x="434" y="172" type="curve" smooth="yes"/>
      <point x="434" y="63"/>
      <point x="493" y="-10"/>
      <point x="580" y="-10" type="curve" smooth="yes"/>
      <point x="667" y="-10"/>
      <point x="726" y="63"/>
      <point x="726" y="172" type="curve" smooth="yes"/>
      <point x="726" y="281"/>
      <point x="667" y="354"/>
      <point x="580" y="354" type="curve" smooth="yes"/>
      <point x="493" y="354" name="hr02"/>
      <point x="434" y="281"/>
    </contour>
    <contour>
      <point x="492" y="172" type="curve" smooth="yes"/>
      <point x="492" y="275.185"/>
      <point x="525" y="334"/>
      <point x="580" y="334" type="curve" smooth="yes"/>
      <point x="635" y="334"/>
      <point x="668" y="275.185"/>
      <point x="668" y="172" type="curve" smooth="yes"/>
      <point x="668" y="68.815"/>
      <point x="635" y="10"/>
      <point x="580" y="10" type="curve" smooth="yes"/>
      <point x="525" y="10"/>
      <point x="492" y="68.815"/>
    </contour>
    <contour>
      <point x="797" y="172" type="curve" smooth="yes"/>
      <point x="797" y="63"/>
      <point x="856" y="-10"/>
      <point x="943" y="-10" type="curve" smooth="yes"/>
      <point x="1030" y="-10"/>
      <point x="1089" y="63"/>
      <point x="1089" y="172" type="curve" smooth="yes"/>
      <point x="1089" y="281"/>
      <point x="1030" y="354"/>
      <point x="943" y="354" type="curve" smooth="yes"/>
      <point x="856" y="354"/>
      <point x="797" y="281"/>
    </contour>
    <contour>
      <point x="855" y="172" type="curve" smooth="yes"/>
      <point x="855" y="275.185"/>
      <point x="888" y="334"/>
      <point x="943" y="334" type="curve" smooth="yes"/>
      <point x="998" y="334"/>
      <point x="1031" y="275.185"/>
      <point x="1031" y="172" type="curve" smooth="yes"/>
      <point x="1031" y="68.815"/>
      <point x="998" y="10"/>
      <point x="943" y="10" type="curve" smooth="yes"/>
      <point x="888" y="10"/>
      <point x="855" y="68.815"/>
    </contour>
  </outline>
</glyph>
<glyph name="minute" format="2">
  <advance width="193"/>
  <unicode hex="2032"/>
  <outline>
    <contour>
      <point x="141" y="640" type="line" smooth="yes"/>
      <point x="145" y="653"/>
      <point x="147" y="664"/>
      <point x="147" y="674" type="curve" smooth="yes"/>
      <point x="147" y="697"/>
      <point x="135" y="710"/>
      <point x="112" y="710" type="curve" smooth="yes"/>
      <point x="82" y="710"/>
      <point x="66" y="688"/>
      <point x="66" y="640" type="curve" smooth="yes"/>
      <point x="66" y="472" type="line"/>
      <point x="84" y="472" type="line"/>
    </contour>
  </outline>
</glyph>
<glyph name="guilsinglleft" format="2">
  <advance width="318"/>
  <unicode hex="2039"/>
  <outline>
    <contour>
      <point x="245" y="154" type="line"/>
      <point x="258" y="166" type="line"/>
      <point x="132" y="350" type="line"/>
      <point x="258" y="534" type="line"/>
      <point x="245" y="546" type="line"/>
      <point x="60" y="358" type="line"/>
      <point x="60" y="342" type="line"/>
    </contour>
  </outline>
</glyph>
<glyph name="fraction" format="2">
  <advance width="144"/>
  <unicode hex="2044"/>
  <outline>
    <contour>
      <point x="-140" y="0" type="line"/>
      <point x="-108" y="0" type="line"/>
      <point x="284" y="700" type="line"/>
      <point x="252" y="700" type="line"/>
    </contour>
  </outline>
</glyph>
<glyph name="zerosuperior" format="2">
  <advance width="434"/>
  <unicode hex="2070"/>
  <outline>
    <contour>
      <point x="62" y="571" type="curve" smooth="yes"/>
      <point x="62" y="439"/>
      <point x="124" y="352"/>
      <point x="217" y="352" type="curve" smooth="yes"/>
      <point x="310" y="352"/>
      <point x="372" y="439"/>
      <point x="372" y="571" type="curve" smooth="yes"/>
      <point x="372" y="703"/>
      <point x="310" y="790"/>
      <point x="217" y="790" type="curve" smooth="yes"/>
      <point x="124" y="790"/>
      <point x="62" y="703"/>
    </contour>
    <contour>
      <point x="120" y="571" type="curve" smooth="yes"/>
      <point x="120" y="696.736"/>
      <point x="156" y="770"/>
      <point x="217" y="770" type="curve" smooth="yes"/>
      <point x="278" y="770"/>
      <point x="314" y="696.736"/>
      <point x="314" y="571" type="curve" smooth="yes"/>
      <point x="314" y="445.264"/>
      <point x="278" y="372"/>
      <point x="217" y="372" type="curve" smooth="yes"/>
      <point x="156" y="372"/>
      <point x="120" y="445.264"/>
    </contour>
  </outline>
</glyph>
<glyph name="foursuperior" format="2">
  <advance width="396"/>
  <unicode hex="2074"/>
  <outline>
    <contour>
      <point x="40" y="477" type="line"/>
      <point x="356" y="477" type="line"/>
      <point x="356" y="497" type="line"/>
      <point x="64" y="497" type="line"/>
      <point x="226" y="780" type="line"/>
      <point x="164" y="780" type="line"/>
      <point x="40" y="493" type="line"/>
    </contour>
    <contour>
      <point x="231" y="362" type="line"/>
      <point x="281" y="362" type="line"/>
      <point x="281" y="642" type="line"/>
      <point x="231" y="642" type="line"/>
    </contour>
  </outline>
</glyph>
<glyph name="fivesuperior" format="2">
  <advance width="359"/>
  <unicode hex="2075"/>
  <outline>
    <contour>
      <point x="51" y="416" type="curve"/>
      <point x="48" y="416" type="line"/>
      <point x="51" y="373" type="line"/>
      <point x="98" y="359"/>
      <point x="131" y="352"/>
      <point x="160" y="352" type="curve" smooth="yes"/>
      <point x="241" y="352"/>
      <point x="297" y="405"/>
      <point x="297" y="482" type="curve" smooth="yes"/>
      <point x="297" y="557"/>
      <point x="245" y="607"/>
      <point x="160" y="624" type="curve" smooth="yes"/>
      <point x="85" y="639" type="line"/>
      <point x="69" y="591" type="line"/>
      <point x="145" y="576" type="line" smooth="yes"/>
      <point x="211" y="563"/>
      <point x="257" y="524"/>
      <point x="257" y="464" type="curve" smooth="yes"/>
      <point x="257" y="409"/>
      <point x="218" y="372"/>
      <point x="161" y="372" type="curve" smooth="yes"/>
      <point x="125" y="372"/>
      <point x="86" y="388"/>
    </contour>
    <contour>
      <point x="69" y="591" type="line"/>
      <point x="89" y="591" type="line"/>
      <point x="109" y="771" type="line"/>
      <point x="90" y="780" type="line"/>
    </contour>
    <contour>
      <point x="90" y="734" type="line"/>
      <point x="281" y="734" type="line"/>
      <point x="281" y="780" type="line"/>
      <point x="90" y="780" type="line"/>
    </contour>
  </outline>
</glyph>
<glyph name="sixsuperior" format="2">
  <advance width="407"/>
  <unicode hex="2076"/>
  <outline>
    <contour>
      <point x="120" y="533" type="curve" smooth="yes"/>
      <point x="120" y="669"/>
      <point x="186" y="766"/>
      <point x="289" y="780" type="curve"/>
      <point x="287" y="794" type="line"/>
      <point x="154" y="782"/>
      <point x="62" y="672"/>
      <point x="62" y="530" type="curve" smooth="yes"/>
      <point x="62" y="419"/>
      <point x="119" y="352"/>
      <point x="212" y="352" type="curve" smooth="yes"/>
      <point x="293" y="352"/>
      <point x="347" y="403"/>
      <point x="347" y="481" type="curve" smooth="yes"/>
      <point x="347" y="555"/>
      <point x="298" y="605"/>
      <point x="225" y="605" type="curve" smooth="yes"/>
      <point x="202" y="605"/>
      <point x="176" y="600"/>
      <point x="154" y="588" type="curve"/>
      <point x="159" y="575" type="line"/>
      <point x="177" y="585"/>
      <point x="192" y="588"/>
      <point x="206" y="588" type="curve" smooth="yes"/>
      <point x="257" y="588"/>
      <point x="289" y="546"/>
      <point x="289" y="479" type="curve" smooth="yes"/>
      <point x="289" y="413"/>
      <point x="258" y="372"/>
      <point x="212" y="372" type="curve" smooth="yes"/>
      <point x="157" y="372"/>
      <point x="120" y="433"/>
    </contour>
  </outline>
</glyph>
<glyph name="sevensuperior" format="2">
  <advance width="357"/>
  <unicode hex="2077"/>
  <outline>
    <contour>
      <point x="42" y="734" type="line"/>
      <point x="277" y="734" type="line"/>
      <point x="92" y="362" type="line"/>
      <point x="144" y="362" type="line"/>
      <point x="311" y="764" type="line"/>
      <point x="311" y="780" type="line"/>
      <point x="42" y="780" type="line"/>
    </contour>
  </outline>
</glyph>
<glyph name="ninesuperior" format="2">
  <advance width="404"/>
  <unicode hex="2079"/>
  <outline>
    <contour>
      <point x="284" y="609" type="curve" smooth="yes"/>
      <point x="284" y="474"/>
      <point x="220" y="375"/>
      <point x="125" y="362" type="curve"/>
      <point x="127" y="348" type="line"/>
      <point x="253" y="360"/>
      <point x="342" y="470"/>
      <point x="342" y="612" type="curve" smooth="yes"/>
      <point x="342" y="723"/>
      <point x="285" y="790"/>
      <point x="194" y="790" type="curve" smooth="yes"/>
      <point x="114" y="790"/>
      <point x="60" y="740"/>
      <point x="60" y="663" type="curve" smooth="yes"/>
      <point x="60" y="590"/>
      <point x="108" y="541"/>
      <point x="180" y="541" type="curve" smooth="yes"/>
      <point x="202" y="541"/>
      <point x="228" y="546"/>
      <point x="250" y="558" type="curve"/>
      <point x="245" y="571" type="line"/>
      <point x="227" y="561"/>
      <point x="213" y="558"/>
      <point x="199" y="558" type="curve" smooth="yes"/>
      <point x="150" y="558"/>
      <point x="118" y="600"/>
      <point x="118" y="665" type="curve" smooth="yes"/>
      <point x="118" y="729"/>
      <point x="149" y="770" name="hr01"/>
      <point x="194" y="770" type="curve" smooth="yes"/>
      <point x="247" y="770"/>
      <point x="284" y="709"/>
    </contour>
  </outline>
</glyph>
<glyph name="Euro" format="2">
  <advance width="726"/>
  <unicode hex="20AC"/>
  <outline>
    <contour>
      <point x="20" y="288" type="line"/>
      <point x="536" y="288" type="line"/>
      <point x="536" y="312" type="line"/>
      <point x="20" y="312" type="line"/>
    </contour>
    <contour>
      <point x="20" y="394" type="line"/>
      <point x="536" y="394" type="line"/>
      <point x="536" y="418" type="line"/>
      <point x="20" y="418" type="line"/>
    </contour>
    <contour>
      <point x="656" y="86" type="line"/>
      <point x="650" y="86" type="line"/>
      <point x="600" y="43"/>
      <point x="529" y="10"/>
      <point x="446" y="10" type="curve" smooth="yes"/>
      <point x="282" y="10"/>
      <point x="174" y="143"/>
      <point x="174" y="350" type="curve" smooth="yes"/>
      <point x="174" y="556.846"/>
      <point x="281.507" y="690"/>
      <point x="446" y="690" type="curve" smooth="yes"/>
      <point x="520" y="690"/>
      <point x="590" y="665"/>
      <point x="639" y="621" type="curve"/>
      <point x="645" y="621" type="line"/>
      <point x="650" y="677" type="line"/>
      <point x="595" y="700"/>
      <point x="505" y="714"/>
      <point x="446" y="714" type="curve" smooth="yes"/>
      <point x="249" y="714"/>
      <point x="98" y="558"/>
      <point x="98" y="350" type="curve" smooth="yes"/>
      <point x="98" y="142"/>
      <point x="249" y="-14"/>
      <point x="446" y="-14" type="curve" smooth="yes"/>
      <point x="505" y="-14"/>
      <point x="593" y="0"/>
      <point x="650" y="25" type="curve"/>
    </contour>
  </outline>
</glyph>
<glyph name="turkishlira" format="2">
  <advance width="578"/>
  <unicode hex="20BA"/>
  <outline>
    <contour>
      <point x="137" y="0" type="line"/>
      <point x="205" y="0" type="line"/>
      <point x="205" y="700" type="line"/>
      <point x="137" y="700" type="line" name="hr01"/>
    </contour>
    <contour>
      <point x="38" y="321" type="line"/>
      <point x="179" y="359.277" type="line"/>
      <point x="179" y="384.277" type="line"/>
      <point x="38" y="346" type="line"/>
    </contour>
    <contour>
      <point x="38" y="427" type="line"/>
      <point x="179" y="465.277" type="line"/>
      <point x="179" y="490.277" type="line"/>
      <point x="38" y="452" type="line"/>
    </contour>
    <contour>
      <point x="158" y="0" type="line"/>
      <point x="242" y="0" type="line" smooth="yes"/>
      <point x="418" y="0"/>
      <point x="524" y="105"/>
      <point x="524" y="281.5" type="curve"/>
      <point x="458" y="281.5" type="line"/>
      <point x="458" y="122"/>
      <point x="375" y="24"/>
      <point x="239" y="24" type="curve" smooth="yes"/>
      <point x="158" y="24" type="line"/>
    </contour>
    <contour>
      <point x="179" y="356.277" type="line"/>
      <point x="399" y="416" type="line"/>
      <point x="399" y="441" type="line"/>
      <point x="179" y="381.277" type="line"/>
    </contour>
    <contour>
      <point x="179" y="462.277" type="line"/>
      <point x="399" y="522" type="line"/>
      <point x="399" y="547" type="line"/>
      <point x="179" y="487.277" type="line"/>
    </contour>
  </outline>
</glyph>
<glyph name="litre" format="2">
  <advance width="427"/>
  <unicode hex="2113"/>
  <outline>
    <contour>
      <point x="156.253" y="289.739" type="line"/>
      <point x="264.196" y="340.734"/>
      <point x="354.024" y="426.067"/>
      <point x="354.024" y="553.399" type="curve" smooth="yes"/>
      <point x="354.024" y="647.879"/>
      <point x="304.568" y="714.362"/>
      <point x="236.6" y="714.362" type="curve" smooth="yes"/>
      <point x="164.184" y="714.362"/>
      <point x="118.944" y="642.894"/>
      <point x="118.944" y="527.652" type="curve" smooth="yes"/>
      <point x="118.944" y="161.568" type="line" smooth="yes"/>
      <point x="118.944" y="50.772"/>
      <point x="169.016" y="-14"/>
      <point x="254.667" y="-14" type="curve" smooth="yes"/>
      <point x="302.279" y="-14"/>
      <point x="341.186" y="6.015"/>
      <point x="385" y="53.048" type="curve"/>
      <point x="372.818" y="66.946" type="line"/>
      <point x="333.151" y="36.655"/>
      <point x="302.69" y="23.411"/>
      <point x="272.655" y="23.411" type="curve" smooth="yes"/>
      <point x="213.665" y="23.411"/>
      <point x="180.819" y="74.498"/>
      <point x="180.816" y="166.305" type="curve" smooth="yes"/>
      <point x="180.806" y="545.588" type="line" smooth="yes"/>
      <point x="180.804" y="642.284"/>
      <point x="199.874" y="690.415"/>
      <point x="236.56" y="690.415" type="curve" smooth="yes"/>
      <point x="270.658" y="690.415"/>
      <point x="288.187" y="649.105"/>
      <point x="288.103" y="567.71" type="curve" smooth="yes"/>
      <point x="287.966" y="433.549"/>
      <point x="240.148" y="358.726"/>
      <point x="156.099" y="311.945" type="curve"/>
    </contour>
    <contour>
      <point x="155.099" y="321.945" type="line"/>
      <point x="117.182" y="300.841"/>
      <point x="73.892" y="285.241"/>
      <point x="22.28" y="272.088" type="curve"/>
      <point x="26.247" y="253.588" type="line"/>
      <point x="69.198" y="263.48"/>
      <point x="114.576" y="277.05"/>
      <point x="156.253" y="296.739" type="curve"/>
    </contour>
  </outline>
</glyph>
<glyph name="soundcopyright" format="2">
  <advance width="888"/>
  <unicode hex="2117"/>
  <outline>
    <contour>
      <point x="80" y="350" type="curve" smooth="yes"/>
      <point x="80" y="139"/>
      <point x="233" y="-14"/>
      <point x="444" y="-14" type="curve" smooth="yes"/>
      <point x="655" y="-14"/>
      <point x="808" y="139"/>
      <point x="808" y="350" type="curve" smooth="yes"/>
      <point x="808" y="561"/>
      <point x="655" y="714"/>
      <point x="444" y="714" type="curve" smooth="yes"/>
      <point x="233" y="714"/>
      <point x="80" y="561"/>
    </contour>
    <contour>
      <point x="108" y="350" type="curve" smooth="yes"/>
      <point x="108" y="546.649"/>
      <point x="249.665" y="690"/>
      <point x="444" y="690" type="curve" smooth="yes"/>
      <point x="637.841" y="690"/>
      <point x="780" y="546.149"/>
      <point x="780" y="350" type="curve" smooth="yes"/>
      <point x="780" y="153.851"/>
      <point x="637.841" y="10"/>
      <point x="444" y="10" type="curve" smooth="yes"/>
      <point x="250.159" y="10"/>
      <point x="108" y="153.851"/>
    </contour>
    <contour>
      <point x="377" y="329" type="line"/>
      <point x="441" y="329" type="line" smooth="yes"/>
      <point x="536.252" y="329" name="hr03"/>
      <point x="593" y="371.188"/>
      <point x="593" y="442" type="curve" smooth="yes"/>
      <point x="593" y="512.812"/>
      <point x="536.252" y="555"/>
      <point x="441" y="555" type="curve" smooth="yes"/>
      <point x="377" y="555" type="line"/>
      <point x="377" y="537" type="line"/>
      <point x="435" y="537" type="line" smooth="yes"/>
      <point x="504.532" y="537" name="hr02"/>
      <point x="539" y="505.514"/>
      <point x="539" y="442" type="curve" smooth="yes"/>
      <point x="539" y="378.486"/>
      <point x="504.532" y="347"/>
      <point x="435" y="347" type="curve" smooth="yes"/>
      <point x="377" y="347" type="line"/>
    </contour>
    <contour>
      <point x="359" y="149" type="line"/>
      <point x="411" y="149" type="line"/>
      <point x="411" y="555" type="line"/>
      <point x="359" y="555" type="line"/>
    </contour>
  </outline>
</glyph>
<glyph name="trademark" format="2">
  <advance width="838"/>
  <unicode hex="2122"/>
  <outline>
    <contour>
      <point x="744" y="700" type="line"/>
      <point x="692" y="700" type="line"/>
      <point x="580.586" y="481.568" type="line"/>
      <point x="577.586" y="481.568" type="line"/>
      <point x="421" y="710" type="line"/>
      <point x="405" y="710" type="line"/>
      <point x="385" y="348" type="line"/>
      <point x="435" y="348" type="line"/>
      <point x="418" y="629" type="line"/>
      <point x="421" y="629" type="line"/>
      <point x="555" y="435" type="line"/>
      <point x="576" y="435" type="line"/>
      <point x="691" y="661" type="line"/>
      <point x="694" y="661" type="line"/>
      <point x="694" y="348" type="line"/>
      <point x="744" y="348" type="line"/>
    </contour>
    <contour>
      <point x="154" y="348" type="line"/>
      <point x="204" y="348" type="line"/>
      <point x="204" y="700" type="line"/>
      <point x="154" y="700" type="line"/>
    </contour>
    <contour>
      <point x="191" y="700" type="line"/>
      <point x="191" y="688" type="line"/>
      <point x="204" y="688" type="line"/>
      <point x="325" y="666" type="line"/>
      <point x="328" y="666" type="line"/>
      <point x="328" y="700" type="line"/>
    </contour>
    <contour>
      <point x="166" y="700" type="line"/>
      <point x="30" y="700" type="line"/>
      <point x="30" y="666" type="line"/>
      <point x="33" y="666" type="line"/>
      <point x="154" y="688" type="line"/>
      <point x="166" y="688" type="line"/>
    </contour>
  </outline>
</glyph>
<glyph name="estimated" format="2">
  <advance width="969"/>
  <unicode hex="212E"/>
  <outline>
    <contour>
      <point x="484" y="693" type="curve" smooth="yes"/>
      <point x="572" y="693"/>
      <point x="656" y="660"/>
      <point x="720" y="599" type="curve" smooth="yes"/>
      <point x="733" y="586"/>
      <point x="741" y="567"/>
      <point x="741" y="549" type="curve" smooth="yes"/>
      <point x="741" y="370" type="line" smooth="yes"/>
      <point x="741" y="364"/>
      <point x="736" y="360"/>
      <point x="730" y="360" type="curve" smooth="yes"/>
      <point x="239" y="360" type="line" smooth="yes"/>
      <point x="233" y="360"/>
      <point x="228" y="364"/>
      <point x="228" y="370" type="curve" smooth="yes"/>
      <point x="228" y="549" type="line" smooth="yes"/>
      <point x="228" y="567"/>
      <point x="236" y="586"/>
      <point x="249" y="599" type="curve" smooth="yes"/>
      <point x="313" y="660"/>
      <point x="398" y="693"/>
    </contour>
    <contour>
      <point x="484" y="714" type="curve" smooth="yes"/>
      <point x="262" y="714"/>
      <point x="80" y="551"/>
      <point x="80" y="350" type="curve" smooth="yes"/>
      <point x="80" y="149"/>
      <point x="262" y="-14"/>
      <point x="484" y="-14" type="curve" smooth="yes"/>
      <point x="609" y="-14"/>
      <point x="727" y="38"/>
      <point x="804" y="127" type="curve"/>
      <point x="744" y="127" type="line"/>
      <point x="679" y="52"/>
      <point x="583" y="7"/>
      <point x="484" y="7" type="curve" smooth="yes"/>
      <point x="398" y="7"/>
      <point x="312" y="40"/>
      <point x="249" y="101" type="curve" smooth="yes"/>
      <point x="235" y="114"/>
      <point x="228" y="133"/>
      <point x="228" y="151" type="curve" smooth="yes"/>
      <point x="228" y="329" type="line" smooth="yes"/>
      <point x="228" y="335"/>
      <point x="233" y="341"/>
      <point x="239" y="341" type="curve" smooth="yes"/>
      <point x="889" y="341" type="line"/>
      <point x="889" y="350" type="line" smooth="yes"/>
      <point x="889" y="551"/>
      <point x="708" y="714"/>
    </contour>
  </outline>
</glyph>
<glyph name="arrowleft" format="2">
  <advance width="864"/>
  <unicode hex="2190"/>
  <outline>
    <contour>
      <point x="325" y="584" type="line"/>
      <point x="120" y="350" type="line"/>
      <point x="325" y="116" type="line"/>
      <point x="308" y="99" type="line"/>
      <point x="60" y="347" type="line"/>
      <point x="60" y="353" type="line"/>
      <point x="308" y="601" type="line"/>
    </contour>
    <contour>
      <point x="774" y="381" type="line"/>
      <point x="774" y="319" type="line"/>
      <point x="91" y="339" type="line"/>
      <point x="91" y="361" type="line"/>
    </contour>
  </outline>
</glyph>
<glyph name="arrowup" format="2">
  <advance width="602"/>
  <unicode hex="2191"/>
  <outline>
    <contour>
      <point x="67" y="449" type="line"/>
      <point x="301" y="654" type="line"/>
      <point x="535" y="449" type="line"/>
      <point x="552" y="466" type="line"/>
      <point x="304" y="714" type="line"/>
      <point x="298" y="714" type="line"/>
      <point x="50" y="466" type="line"/>
    </contour>
    <contour>
      <point x="267" y="0" type="line"/>
      <point x="335" y="0" type="line"/>
      <point x="312" y="683" type="line"/>
      <point x="290" y="683" type="line"/>
    </contour>
  </outline>
</glyph>
<glyph name="partialdiff" format="2">
  <advance width="582"/>
  <unicode hex="2202"/>
  <outline>
    <contour>
      <point x="258" y="-14" type="curve" smooth="yes"/>
      <point x="416" y="-14"/>
      <point x="515" y="113"/>
      <point x="515" y="315" type="curve" smooth="yes"/>
      <point x="515" y="528"/>
      <point x="370" y="700"/>
      <point x="170" y="718" type="curve"/>
      <point x="168" y="700" type="line"/>
      <point x="334" y="679"/>
      <point x="442" y="534"/>
      <point x="442" y="336" type="curve" smooth="yes"/>
      <point x="442" y="139"/>
      <point x="369" y="10"/>
      <point x="260" y="10" type="curve" smooth="yes"/>
      <point x="183" y="10"/>
      <point x="135" y="71"/>
      <point x="135" y="172" type="curve" smooth="yes"/>
      <point x="135" y="305"/>
      <point x="207" y="398"/>
      <point x="311.71" y="398" type="curve" smooth="yes"/>
      <point x="366" y="398"/>
      <point x="427" y="373"/>
      <point x="469" y="333" type="curve"/>
      <point x="479" y="351" type="line"/>
      <point x="428" y="400"/>
      <point x="364" y="425"/>
      <point x="291" y="425" type="curve" smooth="yes"/>
      <point x="154" y="425"/>
      <point x="62" y="330"/>
      <point x="62" y="190" type="curve" smooth="yes"/>
      <point x="62" y="64"/>
      <point x="137" y="-14"/>
    </contour>
  </outline>
</glyph>
<glyph name="product" format="2">
  <advance width="816"/>
  <unicode hex="220F"/>
  <outline>
    <contour>
      <point x="130" y="-145" type="line"/>
      <point x="198" y="-145" type="line"/>
      <point x="198" y="700" type="line"/>
      <point x="130" y="700" type="line"/>
    </contour>
    <contour>
      <point x="618" y="-145" type="line"/>
      <point x="686" y="-145" type="line"/>
      <point x="686" y="700" type="line"/>
      <point x="618" y="700" type="line"/>
    </contour>
    <contour>
      <point x="158" y="676" type="line"/>
      <point x="658" y="676" type="line"/>
      <point x="658" y="700" type="line"/>
      <point x="158" y="700" type="line"/>
    </contour>
  </outline>
</glyph>
<glyph name="summation" format="2">
  <advance width="574"/>
  <unicode hex="2211"/>
  <outline>
    <contour>
      <point x="349" y="303" type="line"/>
      <point x="122" y="680" type="line"/>
      <point x="45" y="680" type="line"/>
      <point x="301" y="256" type="line"/>
    </contour>
    <contour>
      <point x="349" y="303" type="line"/>
      <point x="319" y="303" type="line"/>
      <point x="32" y="-125" type="line"/>
      <point x="62" y="-125" type="line"/>
    </contour>
    <contour>
      <point x="32" y="-145" type="line"/>
      <point x="524" y="-145" type="line"/>
      <point x="524" y="-85" type="line"/>
      <point x="77" y="-85" type="line"/>
      <point x="32" y="-125" type="line"/>
    </contour>
    <contour>
      <point x="510" y="700" type="line"/>
      <point x="45" y="700" type="line"/>
      <point x="45" y="680" type="line"/>
      <point x="122" y="680" type="line" smooth="yes"/>
      <point x="133.111" y="680"/>
      <point x="158.102" y="678.231"/>
      <point x="197" y="675" type="curve" smooth="yes"/>
      <point x="510" y="649" type="line"/>
    </contour>
  </outline>
</glyph>
<glyph name="minus" format="2">
  <advance width="582"/>
  <unicode hex="2212"/>
  <outline>
    <contour>
      <point x="59" y="313" type="line"/>
      <point x="523" y="313" type="line"/>
      <point x="523" y="343" type="line"/>
      <point x="59" y="343" type="line"/>
    </contour>
  </outline>
</glyph>
<glyph name="radical" format="2">
  <advance width="582"/>
  <unicode hex="221A"/>
  <outline>
    <contour>
      <point x="141" y="381" type="line"/>
      <point x="301" y="-14" type="line"/>
      <point x="323" y="-14" type="line"/>
      <point x="576" y="837" type="line"/>
      <point x="514" y="837" type="line"/>
      <point x="328" y="88" type="line"/>
      <point x="322" y="88" type="line"/>
      <point x="199" y="395" type="line"/>
    </contour>
    <contour>
      <point x="50" y="371" type="line"/>
      <point x="203" y="371" type="line"/>
      <point x="199" y="395" type="line"/>
      <point x="50" y="395" type="line"/>
    </contour>
  </outline>
</glyph>
<glyph name="infinity" format="2">
  <advance width="788"/>
  <unicode hex="221E"/>
  <outline>
    <contour>
      <point x="566" y="489" type="curve" smooth="yes"/>
      <point x="494" y="489"/>
      <point x="447" y="446"/>
      <point x="377" y="323" type="curve"/>
      <point x="448" y="206"/>
      <point x="492" y="161"/>
      <point x="566" y="161" type="curve" smooth="yes"/>
      <point x="657" y="161"/>
      <point x="718" y="227"/>
      <point x="718" y="325" type="curve" smooth="yes"/>
      <point x="718" y="423"/>
      <point x="657" y="489"/>
    </contour>
    <contour>
      <point x="566" y="461" type="curve" smooth="yes"/>
      <point x="637" y="461"/>
      <point x="684" y="407"/>
      <point x="684" y="325" type="curve" smooth="yes"/>
      <point x="684" y="243"/>
      <point x="637" y="189"/>
      <point x="566" y="189" type="curve" smooth="yes"/>
      <point x="514" y="189"/>
      <point x="478" y="218"/>
      <point x="412" y="328" type="curve"/>
      <point x="470" y="428"/>
      <point x="509" y="461"/>
    </contour>
    <contour>
      <point x="222" y="161" type="curve" smooth="yes"/>
      <point x="294" y="161"/>
      <point x="341" y="204"/>
      <point x="411" y="327" type="curve"/>
      <point x="340" y="444"/>
      <point x="296" y="489"/>
      <point x="222" y="489" type="curve" smooth="yes"/>
      <point x="131" y="489"/>
      <point x="70" y="423"/>
      <point x="70" y="325" type="curve" smooth="yes"/>
      <point x="70" y="227"/>
      <point x="131" y="161"/>
    </contour>
    <contour>
      <point x="222" y="189" type="curve" smooth="yes"/>
      <point x="151" y="189"/>
      <point x="104" y="243"/>
      <point x="104" y="325" type="curve" smooth="yes"/>
      <point x="104" y="407"/>
      <point x="151" y="461"/>
      <point x="222" y="461" type="curve" smooth="yes"/>
      <point x="274" y="461"/>
      <point x="310" y="432"/>
      <point x="376" y="322" type="curve"/>
      <point x="318" y="222"/>
      <point x="279" y="189"/>
    </contour>
  </outline>
</glyph>
<glyph name="integral" format="2">
  <advance width="400"/>
  <unicode hex="222B"/>
  <outline>
    <contour>
      <point x="166" y="22" type="line" smooth="yes"/>
      <point x="166" y="-57"/>
      <point x="149" y="-96"/>
      <point x="108" y="-96" type="curve" smooth="yes"/>
      <point x="87" y="-96"/>
      <point x="67" y="-87"/>
      <point x="37" y="-44" type="curve"/>
      <point x="31" y="-44" type="line"/>
      <point x="26" y="-98" type="line"/>
      <point x="60" y="-115"/>
      <point x="84" y="-120"/>
      <point x="108" y="-120" type="curve" smooth="yes"/>
      <point x="189" y="-120"/>
      <point x="234" y="-63"/>
      <point x="234" y="50" type="curve" smooth="yes"/>
      <point x="234" y="678" type="line" smooth="yes"/>
      <point x="234" y="757"/>
      <point x="251" y="796"/>
      <point x="292" y="796" type="curve" smooth="yes"/>
      <point x="313" y="796"/>
      <point x="333" y="787"/>
      <point x="363" y="744" type="curve"/>
      <point x="369" y="744" type="line"/>
      <point x="374" y="798" type="line"/>
      <point x="340" y="815"/>
      <point x="316" y="820"/>
      <point x="292" y="820" type="curve" smooth="yes"/>
      <point x="211" y="820"/>
      <point x="166" y="763"/>
      <point x="166" y="650" type="curve" smooth="yes"/>
    </contour>
  </outline>
</glyph>
<glyph name="notequal" format="2">
  <advance width="582"/>
  <unicode hex="2260"/>
  <outline>
    <contour>
      <point x="347" y="401" type="line"/>
      <point x="371" y="383" type="line"/>
      <point x="465" y="505" type="line"/>
      <point x="441" y="523" type="line"/>
    </contour>
    <contour>
      <point x="218" y="228" type="line"/>
      <point x="242" y="210" type="line"/>
      <point x="372" y="379" type="line"/>
      <point x="348" y="397" type="line"/>
    </contour>
    <contour>
      <point x="110" y="84" type="line"/>
      <point x="134" y="66" type="line"/>
      <point x="244" y="209" type="line"/>
      <point x="220" y="227" type="line"/>
    </contour>
    <component base="equal"/>
  </outline>
</glyph>
<glyph name="lozenge" format="2">
  <advance width="573"/>
  <unicode hex="25CA"/>
  <outline>
    <contour>
      <point x="305" y="0" type="line"/>
      <point x="515" y="350" type="line"/>
      <point x="305" y="700" type="line"/>
      <point x="268" y="700" type="line"/>
      <point x="478" y="350" type="line"/>
      <point x="268" y="0" type="line"/>
    </contour>
    <contour>
      <point x="268" y="0" type="line"/>
      <point x="305" y="0" type="line"/>
      <point x="95" y="350" type="line"/>
      <point x="305" y="700" type="line"/>
      <point x="268" y="700" type="line"/>
      <point x="58" y="350" type="line"/>
    </contour>
  </outline>
</glyph>
<glyph name="Euro.tf" format="2">
  <advance width="582"/>
  <outline>
    <contour>
      <point x="546" y="73" type="line"/>
      <point x="540" y="73" type="line"/>
      <point x="491" y="33"/>
      <point x="453" y="10"/>
      <point x="394" y="10" type="curve" smooth="yes"/>
      <point x="262" y="10"/>
      <point x="184" y="134"/>
      <point x="184" y="350" type="curve" smooth="yes"/>
      <point x="184" y="565.724"/>
      <point x="261.569" y="690"/>
      <point x="394" y="690" type="curve" smooth="yes"/>
      <point x="450" y="690"/>
      <point x="499" y="669"/>
      <point x="534" y="634" type="curve"/>
      <point x="540" y="634" type="line"/>
      <point x="544" y="686" type="line"/>
      <point x="497" y="702"/>
      <point x="442" y="714"/>
      <point x="394" y="714" type="curve" smooth="yes"/>
      <point x="225" y="714"/>
      <point x="108" y="565"/>
      <point x="108" y="350" type="curve" smooth="yes"/>
      <point x="108" y="135"/>
      <point x="225" y="-14"/>
      <point x="394" y="-14" type="curve" smooth="yes"/>
      <point x="442" y="-14"/>
      <point x="499" y="-2"/>
      <point x="541" y="16" type="curve"/>
    </contour>
    <contour>
      <point x="30" y="288" type="line"/>
      <point x="446" y="288" type="line"/>
      <point x="446" y="312" type="line"/>
      <point x="30" y="312" type="line"/>
    </contour>
    <contour>
      <point x="30" y="394" type="line"/>
      <point x="446" y="394" type="line"/>
      <point x="446" y="418" type="line"/>
      <point x="30" y="418" type="line"/>
    </contour>
  </outline>
</glyph>
<glyph name="caroncomb.alt" format="2">
  <outline>
    <contour>
      <point x="73" y="677" type="curve" smooth="yes"/>
      <point x="73" y="697"/>
      <point x="88" y="710"/>
      <point x="109" y="710" type="curve" smooth="yes"/>
      <point x="137" y="710"/>
      <point x="153" y="690"/>
      <point x="153" y="656" type="curve" smooth="yes"/>
      <point x="153" y="614"/>
      <point x="129" y="560"/>
      <point x="89" y="515" type="curve"/>
      <point x="75" y="526" type="line"/>
      <point x="90" y="546"/>
      <point x="98" y="572" name="hr01"/>
      <point x="98" y="599" type="curve" smooth="yes"/>
      <point x="98" y="620"/>
      <point x="93" y="634"/>
      <point x="82" y="652" type="curve" smooth="yes"/>
      <point x="77" y="660"/>
      <point x="73" y="667" name="hr02"/>
    </contour>
  </outline>
</glyph>
<glyph name="cent.tf" format="2">
  <advance width="582"/>
  <outline>
    <contour>
      <point x="499" y="69" type="line"/>
      <point x="494" y="69" type="line"/>
      <point x="451" y="32"/>
      <point x="394" y="8"/>
      <point x="337" y="8" type="curve" smooth="yes"/>
      <point x="221" y="8"/>
      <point x="140" y="104"/>
      <point x="140" y="242" type="curve" smooth="yes"/>
      <point x="140" y="380"/>
      <point x="221" y="476"/>
      <point x="337" y="476" type="curve" smooth="yes"/>
      <point x="395" y="476"/>
      <point x="446" y="452"/>
      <point x="485" y="416" type="curve"/>
      <point x="490" y="416" type="line"/>
      <point x="494" y="465" type="line"/>
      <point x="442" y="486"/>
      <point x="388" y="498"/>
      <point x="337" y="498" type="curve" smooth="yes"/>
      <point x="185" y="498"/>
      <point x="70" y="388"/>
      <point x="70" y="242" type="curve" smooth="yes"/>
      <point x="70" y="96"/>
      <point x="185" y="-14"/>
      <point x="337" y="-14" type="curve" smooth="yes"/>
      <point x="389" y="-14"/>
      <point x="458" y="-1"/>
      <point x="494" y="16" type="curve"/>
    </contour>
    <contour>
      <point x="312" y="-98" type="line"/>
      <point x="338" y="-98" type="line"/>
      <point x="338" y="582" type="line"/>
      <point x="312" y="582" type="line"/>
    </contour>
  </outline>
</glyph>
<glyph name="florin.tf" format="2">
  <advance width="582"/>
  <outline>
    <contour>
      <point x="205.624" y="82.552" type="line" smooth="yes"/>
      <point x="185.416" y="-80.929"/>
      <point x="137.05" y="-184.609"/>
      <point x="47.05" y="-220.95" type="curve"/>
      <point x="49.3" y="-226.95" type="line"/>
      <point x="176.902" y="-208.129"/>
      <point x="246.224" y="-108.392"/>
      <point x="270.324" y="89.552" type="curve" smooth="yes"/>
      <point x="329.05" y="571.9" type="line" smooth="yes"/>
      <point x="338.67" y="650.91"/>
      <point x="372.25" y="689.9"/>
      <point x="421.329" y="689.9" type="curve" smooth="yes"/>
      <point x="445.767" y="689.9"/>
      <point x="466.45" y="681.9"/>
      <point x="491.15" y="638.9" type="curve"/>
      <point x="497.15" y="638.9" type="line"/>
      <point x="508.8" y="691.9" type="line"/>
      <point x="476.714" y="708.999"/>
      <point x="449.259" y="713.9"/>
      <point x="420.69" y="713.9" type="curve" smooth="yes"/>
      <point x="330.977" y="713.9"/>
      <point x="276.648" y="657.149"/>
      <point x="262.65" y="543.9" type="curve" smooth="yes"/>
    </contour>
    <contour>
      <point x="156.893" y="407.561" type="line"/>
      <point x="438.893" y="407.561" type="line"/>
      <point x="441.84" y="431.561" type="line"/>
      <point x="159.84" y="431.561" type="line"/>
    </contour>
  </outline>
</glyph>
<glyph name="one.tf" format="2">
  <advance width="582"/>
  <outline>
    <contour>
      <point x="274" y="10" type="line"/>
      <point x="342" y="10" type="line"/>
      <point x="342" y="714" type="line"/>
      <point x="322" y="714" type="line"/>
      <point x="103" y="582" type="line"/>
      <point x="111" y="566" type="line"/>
      <point x="274" y="642" type="line"/>
    </contour>
    <contour>
      <point x="103" y="0" type="line"/>
      <point x="500" y="0" type="line"/>
      <point x="500" y="24" type="line"/>
      <point x="103" y="24" type="line"/>
    </contour>
  </outline>
</glyph>
<glyph name="periodcentered.loclCAT.case" format="2">
  <advance height="1160" width="264"/>
  <outline>
    <contour>
      <point x="87" y="360" type="curve" smooth="yes"/>
      <point x="87" y="331"/>
      <point x="108" y="310"/>
      <point x="137" y="310" type="curve" smooth="yes"/>
      <point x="166" y="310"/>
      <point x="187" y="331"/>
      <point x="187" y="360" type="curve" smooth="yes"/>
      <point x="187" y="389"/>
      <point x="166" y="410"/>
      <point x="137" y="410" type="curve" smooth="yes"/>
      <point x="108" y="410"/>
      <point x="87" y="389"/>
    </contour>
  </outline>
</glyph>
<glyph name="seven.tf" format="2">
  <advance width="582"/>
  <outline>
    <contour>
      <point x="67" y="640" type="line"/>
      <point x="464" y="640" type="line"/>
      <point x="154" y="0" type="line"/>
      <point x="228" y="0" type="line"/>
      <point x="508" y="680" type="line"/>
      <point x="508" y="700" type="line"/>
      <point x="67" y="700" type="line"/>
    </contour>
  </outline>
</glyph>
<glyph name="six.tf" format="2">
  <advance width="582"/>
  <outline>
    <contour>
      <point x="144" y="284" type="curve" smooth="yes"/>
      <point x="144" y="519"/>
      <point x="270" y="679"/>
      <point x="440" y="700" type="curve"/>
      <point x="438" y="718" type="line"/>
      <point x="224" y="699"/>
      <point x="70" y="516"/>
      <point x="70" y="279" type="curve" smooth="yes"/>
      <point x="70" y="98"/>
      <point x="161" y="-14"/>
      <point x="308" y="-14" type="curve" smooth="yes"/>
      <point x="436" y="-14"/>
      <point x="523" y="72"/>
      <point x="523" y="200" type="curve" smooth="yes"/>
      <point x="523" y="323"/>
      <point x="445" y="405"/>
      <point x="330" y="405" type="curve" smooth="yes"/>
      <point x="286" y="405"/>
      <point x="243" y="393"/>
      <point x="199" y="368" type="curve"/>
      <point x="208" y="352" type="line"/>
      <point x="239" y="368"/>
      <point x="274" y="377"/>
      <point x="305" y="377" type="curve" smooth="yes"/>
      <point x="393" y="377"/>
      <point x="449" y="305"/>
      <point x="449" y="192" type="curve" smooth="yes"/>
      <point x="449" y="82"/>
      <point x="392" y="8"/>
      <point x="308" y="8" type="curve" smooth="yes"/>
      <point x="208" y="8"/>
      <point x="144" y="115"/>
    </contour>
  </outline>
</glyph>
<glyph name="two.tf" format="2">
  <advance width="582"/>
  <outline>
    <contour>
      <point x="55" y="0" type="line"/>
      <point x="495" y="0" type="line"/>
      <point x="495" y="60" type="line"/>
      <point x="119" y="60" type="line"/>
      <point x="350" y="315" type="line" smooth="yes"/>
      <point x="444.568" y="419.393"/>
      <point x="475" y="489"/>
      <point x="475" y="549" type="curve" smooth="yes"/>
      <point x="475" y="650"/>
      <point x="390" y="714"/>
      <point x="265" y="714" type="curve" smooth="yes"/>
      <point x="201" y="714"/>
      <point x="135" y="697"/>
      <point x="88" y="671" type="curve"/>
      <point x="93" y="617" type="line"/>
      <point x="99" y="617" type="line"/>
      <point x="146" y="662"/>
      <point x="208" y="690"/>
      <point x="265" y="690" type="curve" smooth="yes"/>
      <point x="346" y="690"/>
      <point x="401" y="634"/>
      <point x="401" y="544" type="curve" smooth="yes"/>
      <point x="401" y="482"/>
      <point x="375.113" y="416.91"/>
      <point x="315" y="342" type="curve" smooth="yes"/>
      <point x="55" y="18" type="line"/>
    </contour>
  </outline>
</glyph>
<glyph name="yen.tf" format="2">
  <advance width="582"/>
  <outline>
    <contour>
      <point x="94" y="156" type="line"/>
      <point x="498" y="156" type="line"/>
      <point x="498" y="180" type="line"/>
      <point x="94" y="180" type="line"/>
    </contour>
    <contour>
      <point x="94" y="262" type="line"/>
      <point x="498" y="262" type="line"/>
      <point x="498" y="286" type="line"/>
      <point x="94" y="286" type="line"/>
    </contour>
    <contour>
      <point x="260" y="0" type="line"/>
      <point x="332" y="0" type="line"/>
      <point x="332" y="300" type="line"/>
      <point x="563" y="700" type="line"/>
      <point x="487" y="700" type="line"/>
      <point x="317" y="324" type="line"/>
      <point x="311" y="324" type="line"/>
      <point x="96" y="700" type="line"/>
      <point x="20" y="700" type="line"/>
      <point x="260" y="286" type="line"/>
    </contour>
  </outline>
</glyph>
<glyph name="zero.tf" format="2">
  <advance width="582"/>
  <outline>
    <contour>
      <point x="54" y="350" type="curve" smooth="yes"/>
      <point x="54" y="131"/>
      <point x="148" y="-14"/>
      <point x="291" y="-14" type="curve" smooth="yes"/>
      <point x="434" y="-14"/>
      <point x="528" y="131"/>
      <point x="528" y="350" type="curve" smooth="yes"/>
      <point x="528" y="569"/>
      <point x="434" y="714"/>
      <point x="291" y="714" type="curve" smooth="yes"/>
      <point x="148" y="714"/>
      <point x="54" y="569"/>
    </contour>
    <contour>
      <point x="128" y="350" type="curve" smooth="yes"/>
      <point x="128" y="564.63"/>
      <point x="188.229" y="690"/>
      <point x="291" y="690" type="curve" smooth="yes"/>
      <point x="394" y="690"/>
      <point x="454" y="565"/>
      <point x="454" y="350" type="curve" smooth="yes"/>
      <point x="454" y="135"/>
      <point x="394" y="10"/>
      <point x="291" y="10" type="curve" smooth="yes"/>
      <point x="188" y="10"/>
      <point x="128" y="135"/>
    </contour>
  </outline>
</glyph>
